<svg width="6000" height="4000" viewBox="0 0 6000 4000" fill="none" xmlns="http://www.w3.org/2000/svg">
<g clip-path="url(#clip0_4_5)">
<rect width="6000" height="4000" fill="#110E45"/>
<g clip-path="url(#clip1_4_5)">
<path fill-rule="evenodd" clip-rule="evenodd" d="M740.412 562.204C924.065 521.365 955.538 724.793 849.664 749.543C836.964 752.504 824.869 752.216 823.689 749.687C821.745 745.54 850.955 735.839 846.27 697.769C835.864 613.129 676.432 652.416 726.979 775.493C735.695 796.706 749.861 819.246 766.466 837.096C832.868 908.481 1011.14 910.018 1087.51 891.159C1188.97 866.105 1282.08 808.568 1393.77 734.702C1433.63 783.706 1476.65 830.421 1522.26 870.043C1435.81 926.059 1360.09 972.341 1292.41 1000.02C1360.09 1027.7 1435.81 1073.98 1522.26 1130C1476.65 1169.62 1433.63 1216.35 1393.77 1265.34C1282.07 1191.47 1188.97 1133.94 1087.51 1108.88C1011.14 1090.02 832.868 1091.56 766.466 1162.95C749.861 1180.8 735.695 1203.34 726.979 1224.55C676.432 1347.61 835.848 1386.91 846.27 1302.27C850.955 1264.2 821.745 1254.52 823.689 1250.36C824.869 1247.84 836.979 1247.54 849.664 1250.5C955.538 1275.23 924.065 1478.66 740.412 1437.84C706.454 1430.28 675.715 1414.75 650.298 1390.61C624.882 1414.75 594.143 1430.28 560.185 1437.84C376.531 1478.68 345.059 1275.25 450.933 1250.5C463.633 1247.54 475.728 1247.83 476.907 1250.36C478.851 1254.5 449.642 1264.2 454.327 1302.27C464.732 1386.91 624.165 1347.63 573.618 1224.55C564.901 1203.34 550.735 1180.8 534.131 1162.95C467.728 1091.56 289.461 1090.02 213.084 1108.88C111.624 1133.94 18.5144 1191.47 -93.1756 1265.34C-133.03 1216.34 -176.055 1169.62 -221.661 1130C-135.213 1073.98 -59.4886 1027.7 8.18832 1000.02C-59.4886 972.341 -135.213 926.059 -221.661 870.043C-176.055 830.421 -133.03 783.69 -93.1756 734.702C18.5144 808.568 111.624 866.105 213.084 891.159C289.461 910.018 467.728 908.481 534.131 837.096C550.735 819.246 564.901 796.706 573.618 775.493C624.165 652.432 464.748 613.129 454.327 697.769C449.642 735.839 478.851 745.524 476.907 749.687C475.728 752.2 463.617 752.504 450.933 749.543C345.059 724.809 376.531 521.381 560.185 562.204C594.143 569.761 624.882 585.289 650.298 609.431C675.715 585.289 706.454 569.761 740.412 562.204V562.204ZM650.298 915.029C603.576 915.029 565.698 953.082 565.698 1000.02C565.698 1046.96 603.576 1085.01 650.298 1085.01C697.02 1085.01 734.898 1046.96 734.898 1000.02C734.898 953.082 697.02 915.029 650.298 915.029ZM-1505.29 1000.04C-1505.29 1111.25 -1594.98 1201.34 -1705.61 1201.34V1998.97C-1701.87 2004.99 -1691.54 1984.39 -1675.34 1967.56C-1643.9 1934.94 -1573.21 1889.12 -1601.09 1821.14C-1514.01 1899.59 -1395.61 1964.68 -1298.18 1979.87C-1267.28 1987.89 -1232.78 1993.42 -1195.02 1996.65C-994.854 2013.75 -777.625 1949.57 -568.444 1873.85C-546.565 1865.92 -524.877 1857.84 -503.316 1849.67C-545.848 1806.35 -585.67 1758.56 -622.4 1710.34C-789.178 1771.11 -936.197 1814.61 -1050.64 1833.33C-1137.75 1847.56 -1190.16 1844.53 -1232.31 1835.34C-1299.09 1820.78 -1355.76 1784.34 -1353.37 1718.73C-1351.48 1666.69 -1300.99 1650.68 -1268.89 1659.69C-1230.25 1670.55 -1241.44 1717.36 -1234.41 1724.91C-1228.7 1731.06 -1201.77 1710.34 -1210.94 1659.76C-1233.74 1533.89 -1381.6 1538.98 -1448.71 1599.23C-1482.41 1629.47 -1501.24 1676.93 -1502.95 1725.39C-1550.77 1683.37 -1596.82 1623.11 -1619.07 1565.8C-1657.23 1467.44 -1637.35 1316.31 -1528.14 1290.57C-1436.53 1268.97 -1396.29 1362.72 -1431.16 1414.66C-1447.92 1439.63 -1487.67 1460.54 -1514.22 1432.2C-1531.14 1414.14 -1522.96 1401.03 -1530.88 1402.83C-1560.62 1409.58 -1563.12 1490.94 -1497.07 1521.63C-1439.94 1548.19 -1370.22 1518.33 -1338.53 1460.79C-1226.33 1582.58 -1093.76 1621.22 -918.971 1615.86C-831.869 1613.19 -729.692 1598.95 -634.623 1570.17C-533.083 1539.43 -440.803 1492.32 -326.037 1419.54C-357.78 1364.71 -390.463 1311.96 -431.321 1263.07C-552.493 1335.08 -676.612 1391.67 -793.481 1422.74C-923.449 1457.3 -1045.72 1459.39 -1154.32 1408.81C-1109.46 1398.46 -1077.03 1373 -1067.3 1329.3C-1060.87 1300.46 -1065.89 1267.98 -1073.64 1248.24C-1086.51 1215.36 -1123.01 1204.15 -1126.38 1212.19C-1129.73 1220.18 -1109.25 1276.43 -1157.7 1300.88C-1202.22 1323.34 -1276.38 1304.07 -1285.88 1234.95C-1290.17 1203.74 -1279.98 1165.33 -1258.79 1141.14C-1237.6 1116.95 -1205.39 1106.99 -1166.86 1104.98C-1003.36 1096.43 -887.483 1238.83 -794.692 1378.83C-721.597 1358.54 -647.562 1328.58 -578.387 1294.65C-620.329 1241.93 -661.936 1197.93 -699.272 1160.8C-779.012 1081.52 -839.582 1034.55 -939.4 1000.02C-839.582 965.489 -779.012 918.519 -699.272 839.242C-661.936 802.117 -620.329 758.108 -578.387 705.39C-647.546 671.466 -721.597 641.497 -794.692 621.214C-887.483 761.213 -1003.36 903.614 -1166.86 895.065C-1205.41 893.048 -1237.6 883.091 -1258.79 858.901C-1279.98 834.711 -1290.17 796.289 -1285.88 765.088C-1276.38 695.976 -1202.22 676.685 -1157.7 699.162C-1109.25 723.608 -1129.73 779.864 -1126.38 787.852C-1123.01 795.889 -1086.53 784.683 -1073.64 751.8C-1065.91 732.061 -1060.89 699.594 -1067.3 670.746C-1077.02 627.025 -1109.46 601.587 -1154.32 591.229C-1045.74 540.656 -923.449 542.737 -793.481 577.301C-676.612 608.375 -552.493 664.967 -431.321 736.976C-390.463 688.068 -357.764 635.334 -326.037 580.503C-440.819 507.725 -533.083 460.611 -634.623 429.873C-729.692 401.105 -831.869 386.857 -918.971 384.199C-1093.76 378.836 -1226.33 417.482 -1338.53 539.263C-1370.22 481.743 -1439.94 451.886 -1497.07 478.429C-1563.1 509.134 -1560.62 590.492 -1530.88 597.232C-1522.96 599.025 -1531.14 585.93 -1514.22 567.856C-1487.67 539.519 -1447.92 560.427 -1431.16 585.401C-1396.29 637.351 -1436.52 731.084 -1528.14 709.488C-1637.35 683.745 -1657.23 532.619 -1619.07 434.26C-1596.82 376.931 -1550.77 316.689 -1502.95 274.665C-1501.23 323.125 -1482.39 370.591 -1448.71 400.833C-1381.59 461.075 -1233.74 466.166 -1210.94 340.286C-1201.77 289.697 -1228.69 268.982 -1234.41 275.129C-1241.44 282.686 -1230.25 329.496 -1268.89 340.35C-1301 349.363 -1351.48 333.354 -1353.37 281.309C-1355.74 215.703 -1299.09 179.267 -1232.31 164.698C-1190.16 155.493 -1137.75 152.484 -1050.64 166.716C-936.197 185.43 -789.178 228.927 -622.4 289.698C-585.67 241.494 -545.848 193.691 -503.316 150.37C-524.861 142.19 -546.549 134.105 -568.444 126.197C-777.625 50.4896 -994.838 -13.6908 -1195.02 3.40688C-1232.78 6.64072 -1267.28 12.1639 -1298.18 20.1844C-1395.61 35.377 -1514.02 100.47 -1601.09 178.915C-1573.21 110.94 -1643.9 65.1379 -1675.34 32.5114C-1691.54 15.6859 -1701.87 -4.91785 -1705.61 1.10157V798.723C-1594.98 798.723 -1505.29 888.806 -1505.29 1000.02V1000.04ZM-1705.61 1119.45V880.593C-1639.99 880.593 -1586.82 933.983 -1586.78 1000.02C-1586.82 1066.06 -1639.99 1119.45 -1705.61 1119.45ZM579.673 1561.38C372.005 1352.01 -66.1973 1503.47 -335.279 1602.91C-305.863 1653.45 -275.698 1701.64 -239.11 1747.68C-110.338 1699.97 31.6132 1655.96 134.332 1633.29C236.668 1610.72 325.953 1606.46 401.326 1618.1C352.58 1662.53 350.668 1734.57 388.275 1763.96C397.693 1771.32 408.545 1774.57 411.907 1769.8C417.803 1761.45 397.534 1714.3 436.192 1691.29C455.203 1679.99 488.126 1675.83 511.853 1686.89C559.276 1708.98 570.845 1792.97 532.728 1834.3C513.223 1855.47 480.397 1866.45 443.188 1869.2C322.59 1878.12 221.29 1791.3 138.06 1676.2C68.6784 1691.76 -1.5641 1712.03 -70.3565 1734.28C-4.60773 1810.29 79.5462 1894.93 160.338 1937.08C267.199 1992.84 453.196 2030.83 563.834 1964.57C600.421 1942.65 630.427 1908.92 650.282 1871.17C670.154 1908.92 700.144 1942.65 736.731 1964.57C847.369 2030.85 1033.38 1992.84 1140.23 1937.08C1221 1894.93 1305.16 1810.27 1370.92 1734.28C1302.13 1712.03 1231.89 1691.76 1162.5 1676.2C1079.27 1791.3 977.974 1878.1 857.377 1869.2C820.168 1866.45 787.341 1855.47 767.836 1834.3C729.719 1792.97 741.288 1708.98 788.712 1686.89C812.439 1675.83 845.361 1679.99 864.372 1691.29C903.031 1714.3 882.745 1761.45 888.657 1769.8C892.02 1774.56 902.872 1771.31 912.289 1763.96C949.896 1734.57 947.984 1662.51 899.238 1618.1C974.612 1606.45 1063.9 1610.72 1166.23 1633.29C1268.97 1655.96 1410.9 1699.95 1539.68 1747.68C1576.26 1701.64 1606.43 1653.45 1635.84 1602.91C1366.76 1503.47 928.575 1352.03 720.891 1561.38C691.65 1590.85 667.365 1621.01 650.266 1653.35C633.184 1621.01 608.883 1590.85 579.641 1561.38H579.673ZM-8.84634 1453.54C-157.299 1230.07 -341.909 1002.84 -607.82 1046.91C-694.013 1061.19 -628.504 1070.65 -581.288 1091.46C-405.506 1169 -320.89 1345.8 -221.741 1516.94C-151.69 1492.99 -80.9054 1471.22 -8.8623 1453.54H-8.84634ZM-638.782 1615.87C-563.313 1594.44 -495.046 1564.93 -426.668 1528.34C-329.766 1699.04 -237.883 1868.16 -62.7234 1945.42C-11.7626 1967.9 58.9738 1978.1 -34.0879 1993.51C-297.657 2037.19 -484.385 1835.17 -638.782 1615.86V1615.87ZM579.673 438.678C608.914 409.205 633.2 379.044 650.298 346.706C667.381 379.044 691.682 409.205 720.923 438.678C928.591 648.045 1366.79 496.583 1635.88 397.151C1606.46 346.61 1576.29 298.422 1539.71 252.38C1410.93 300.087 1268.98 344.096 1166.26 366.765C1063.93 389.338 974.644 393.597 899.27 381.958C948.016 337.533 949.928 265.492 912.321 236.099C902.903 228.735 892.052 225.485 888.689 230.256C882.793 238.612 903.063 285.759 864.404 308.764C845.393 320.067 812.471 324.229 788.744 313.167C741.32 291.074 729.751 207.091 767.868 165.755C787.373 144.591 820.2 133.609 857.408 130.855C978.006 121.938 1079.31 208.756 1162.54 323.861C1231.92 308.3 1302.16 288.033 1370.95 265.78C1305.2 189.769 1221.05 105.129 1140.26 62.9767C1033.41 7.21704 847.401 -30.7725 736.763 35.4891C700.175 57.4056 670.169 91.1367 650.314 128.886C630.443 91.1367 600.453 57.4056 563.866 35.4891C453.227 -30.7885 267.215 7.21704 160.37 62.9767C79.5941 105.129 -4.55989 189.785 -70.3246 265.78C-1.5322 288.033 68.7103 308.3 138.092 323.861C221.322 208.756 322.622 121.954 443.22 130.855C480.429 133.609 513.255 144.591 532.76 165.755C570.877 207.091 559.308 291.074 511.885 313.167C488.157 324.229 455.235 320.067 436.224 308.764C397.566 285.759 417.851 238.612 411.939 230.256C408.577 225.501 397.725 228.751 388.307 236.099C350.7 265.492 352.612 337.549 401.358 381.958C325.984 393.613 236.7 389.338 134.364 366.765C31.6451 344.096 -110.306 300.103 -239.079 252.38C-275.666 298.422 -305.831 346.61 -335.248 397.151C-66.1654 496.583 372.021 648.029 579.705 438.678H579.673ZM-8.84634 546.515C-80.9054 528.841 -151.674 507.085 -221.725 483.119C-320.874 654.257 -405.49 831.061 -581.272 908.593C-628.488 929.421 -693.997 938.866 -607.804 953.146C-341.893 997.203 -157.299 769.986 -8.83039 546.515H-8.84634ZM-638.782 384.183C-484.369 164.875 -297.641 -37.1442 -34.0719 6.52866C58.9738 21.9454 -11.7626 32.1592 -62.7075 54.62C-237.867 131.88 -329.75 301 -426.652 471.705C-495.03 435.108 -563.297 405.603 -638.766 384.167L-638.782 384.183ZM2805.86 1000.04C2805.86 1111.25 2895.54 1201.34 3006.18 1201.34V1998.97C3002.43 2004.99 2992.11 1984.39 2975.9 1967.56C2944.46 1934.94 2873.77 1889.12 2901.66 1821.14C2814.59 1899.59 2696.17 1964.68 2598.75 1979.87C2567.85 1987.89 2533.35 1993.42 2495.58 1996.65C2295.42 2013.75 2078.19 1949.57 1869.01 1873.85C1847.13 1865.92 1825.44 1857.84 1803.88 1849.67C1846.41 1806.35 1886.23 1758.56 1922.97 1710.34C2089.74 1771.11 2236.76 1814.61 2351.21 1833.33C2438.31 1847.56 2490.72 1844.53 2532.87 1835.34C2599.65 1820.78 2656.32 1784.34 2653.93 1718.73C2652.05 1666.69 2601.55 1650.68 2569.46 1659.69C2530.81 1670.55 2542 1717.36 2534.97 1724.91C2529.27 1731.06 2502.34 1710.34 2511.5 1659.76C2534.3 1533.89 2682.17 1538.98 2749.27 1599.23C2782.97 1629.47 2801.81 1676.93 2803.51 1725.39C2851.34 1683.37 2897.39 1623.11 2919.63 1565.8C2957.8 1467.44 2937.91 1316.31 2828.71 1290.57C2737.1 1268.97 2696.86 1362.72 2731.73 1414.66C2748.49 1439.63 2788.23 1460.54 2814.78 1432.2C2831.7 1414.14 2823.53 1401.03 2831.45 1402.83C2861.18 1409.58 2863.69 1490.94 2797.63 1521.63C2740.51 1548.19 2670.79 1518.33 2639.09 1460.79C2526.91 1582.58 2394.33 1621.22 2219.54 1615.86C2132.43 1613.19 2030.26 1598.95 1935.19 1570.17C1833.65 1539.43 1741.37 1492.32 1626.6 1419.54C1658.34 1364.71 1691.03 1311.96 1731.89 1263.07C1853.06 1335.08 1977.18 1391.67 2094.05 1422.74C2224.01 1457.3 2346.28 1459.39 2454.88 1408.81C2410.03 1398.46 2377.6 1373 2367.86 1329.3C2361.44 1300.46 2366.46 1267.98 2374.2 1248.24C2387.08 1215.36 2423.57 1204.15 2426.95 1212.19C2430.29 1220.18 2409.82 1276.43 2458.26 1300.88C2502.78 1323.34 2576.95 1304.07 2586.44 1234.95C2590.73 1203.74 2580.55 1165.33 2559.35 1141.14C2538.16 1116.95 2505.96 1106.99 2467.42 1104.98C2303.93 1096.43 2188.05 1238.83 2095.26 1378.83C2022.16 1358.54 1948.13 1328.58 1878.95 1294.65C1920.89 1241.93 1962.5 1197.93 1999.84 1160.8C2079.58 1081.52 2140.15 1034.55 2239.96 1000.02C2140.15 965.489 2079.58 918.519 1999.84 839.242C1962.5 802.117 1920.88 758.108 1878.95 705.39C1948.11 671.466 2022.16 641.497 2095.26 621.214C2188.05 761.213 2303.93 903.614 2467.42 895.065C2505.97 893.048 2538.16 883.091 2559.35 858.901C2580.55 834.711 2590.73 796.289 2586.44 765.088C2576.95 695.976 2502.78 676.685 2458.26 699.162C2409.82 723.608 2430.29 779.864 2426.95 787.852C2423.57 795.889 2387.09 784.683 2374.2 751.8C2366.47 732.061 2361.45 699.594 2367.86 670.746C2377.58 627.025 2410.03 601.587 2454.88 591.229C2346.3 540.656 2224.01 542.737 2094.05 577.301C1977.18 608.375 1853.06 664.967 1731.89 736.976C1691.03 688.068 1658.33 635.334 1626.6 580.503C1741.38 507.725 1833.65 460.611 1935.19 429.873C2030.27 401.105 2132.43 386.857 2219.54 384.199C2394.33 378.836 2526.89 417.482 2639.09 539.263C2670.79 481.743 2740.51 451.886 2797.63 478.429C2863.69 509.134 2861.18 590.492 2831.45 597.232C2823.53 599.025 2831.7 585.93 2814.78 567.856C2788.23 539.519 2748.49 560.427 2731.73 585.401C2696.86 637.351 2737.08 731.084 2828.71 709.488C2937.91 683.745 2957.8 532.619 2919.63 434.26C2897.39 376.931 2851.34 316.689 2803.51 274.665C2801.79 323.125 2782.96 370.591 2749.27 400.833C2682.15 461.075 2534.3 466.166 2511.5 340.286C2502.34 289.697 2529.25 268.982 2534.97 275.129C2542 282.686 2530.81 329.496 2569.46 340.35C2601.57 349.363 2652.05 333.354 2653.93 281.309C2656.3 215.703 2599.65 179.267 2532.87 164.698C2490.72 155.493 2438.31 152.484 2351.21 166.716C2236.76 185.43 2089.74 228.927 1922.97 289.698C1886.23 241.494 1846.41 193.691 1803.88 150.37C1825.44 142.19 1847.11 134.105 1869.01 126.197C2078.19 50.4576 2295.42 -13.7068 2495.58 3.39087C2533.35 6.62471 2567.85 12.1478 2598.75 20.1684C2696.17 35.361 2814.59 100.454 2901.66 178.899C2873.77 110.924 2944.46 65.1059 2975.9 32.4794C2992.11 15.6538 3002.43 -4.94986 3006.18 1.06955V798.723C2895.54 798.723 2805.86 888.806 2805.86 1000.02V1000.04ZM3006.18 1119.46V880.609C2940.56 880.609 2887.36 933.999 2887.35 1000.04C2887.38 1066.07 2940.56 1119.46 3006.18 1119.46ZM1309.4 1453.56C1381.45 1471.23 1452.22 1493 1522.27 1516.95C1621.42 1345.82 1706.04 1169.01 1881.82 1091.48C1929.04 1070.65 1994.56 1061.21 1908.35 1046.93C1642.44 1002.87 1457.85 1230.09 1309.38 1453.56H1309.4ZM1939.33 1615.89C1784.93 1835.18 1598.21 2037.22 1334.64 1993.55C1241.59 1978.13 1312.33 1967.91 1363.27 1945.45C1538.43 1868.19 1630.31 1699.07 1727.22 1528.37C1795.59 1564.97 1863.86 1594.47 1939.33 1615.91V1615.89ZM1309.4 546.515C1457.85 769.986 1642.46 997.219 1908.37 953.146C1994.56 938.866 1929.05 929.405 1881.84 908.593C1706.05 831.061 1621.44 654.257 1522.29 483.119C1452.24 507.069 1381.45 528.841 1309.41 546.515H1309.4ZM1939.33 384.183C1863.86 405.619 1795.59 435.124 1727.22 471.721C1630.31 301.016 1538.43 131.896 1363.27 54.636C1312.31 32.1592 1241.57 21.9614 1334.64 6.54467C1598.21 -37.1281 1784.93 164.891 1939.33 384.199V384.183Z" fill="#EBB633"/>
<path fill-rule="evenodd" clip-rule="evenodd" d="M5452.23 562.22C5635.89 521.381 5667.36 724.809 5561.49 749.559C5548.79 752.52 5536.69 752.232 5535.51 749.703C5533.57 745.556 5562.78 735.855 5558.09 697.785C5547.69 613.145 5388.26 652.432 5438.8 775.509C5447.52 796.721 5461.68 819.262 5478.29 837.112C5544.69 908.497 5722.96 910.034 5799.34 891.175C5900.8 866.121 5993.91 808.584 6105.6 734.718C6145.45 783.722 6188.47 830.437 6234.08 870.059C6147.63 926.075 6071.91 972.357 6004.23 1000.04C6071.91 1027.72 6147.63 1074 6234.08 1130.01C6188.47 1169.64 6145.45 1216.37 6105.6 1265.36C5993.89 1191.49 5900.8 1133.95 5799.34 1108.9C5722.96 1090.04 5544.69 1091.58 5478.29 1162.96C5461.68 1180.81 5447.52 1203.35 5438.8 1224.56C5388.26 1347.63 5547.67 1386.93 5558.09 1302.29C5562.78 1264.22 5533.57 1254.53 5535.51 1250.37C5536.69 1247.86 5548.8 1247.55 5561.49 1250.52C5667.36 1275.25 5635.89 1478.68 5452.23 1437.85C5418.28 1430.3 5387.54 1414.77 5362.12 1390.63C5336.7 1414.77 5305.97 1430.3 5272.01 1437.85C5088.35 1478.69 5056.88 1275.27 5162.76 1250.52C5175.46 1247.55 5187.55 1247.84 5188.73 1250.37C5190.67 1254.52 5161.46 1264.22 5166.15 1302.29C5176.56 1386.93 5335.99 1347.64 5285.44 1224.56C5276.72 1203.35 5262.56 1180.81 5245.95 1162.96C5179.55 1091.58 5001.28 1090.04 4924.91 1108.9C4823.45 1133.95 4730.34 1191.49 4618.65 1265.36C4578.79 1216.35 4535.77 1169.64 4490.16 1130.01C4576.61 1074 4652.33 1027.72 4720.01 1000.04C4652.32 972.357 4576.61 926.075 4490.16 870.059C4535.77 830.437 4578.79 783.706 4618.65 734.718C4730.34 808.584 4823.45 866.121 4924.91 891.175C5001.28 910.034 5179.55 908.497 5245.95 837.112C5262.56 819.262 5276.72 796.721 5285.44 775.509C5335.99 652.448 5176.57 613.145 5166.15 697.785C5161.46 735.855 5190.67 745.54 5188.73 749.703C5187.55 752.216 5175.44 752.52 5162.76 749.559C5056.88 724.825 5088.35 521.397 5272.01 562.22C5305.97 569.777 5336.7 585.305 5362.12 609.447C5387.54 585.305 5418.28 569.777 5452.23 562.22V562.22ZM5362.12 915.045C5315.4 915.045 5277.52 953.098 5277.52 1000.04C5277.52 1046.98 5315.4 1085.03 5362.12 1085.03C5408.84 1085.03 5446.72 1046.98 5446.72 1000.04C5446.72 953.098 5408.84 915.045 5362.12 915.045ZM3206.53 1000.04C3206.53 1111.25 3116.85 1201.34 3006.21 1201.34V1998.97C3009.95 2004.99 3020.28 1984.39 3036.49 1967.56C3067.93 1934.94 3138.62 1889.12 3110.73 1821.14C3197.81 1899.59 3316.21 1964.68 3413.64 1979.87C3444.54 1987.89 3479.04 1993.42 3516.81 1996.65C3716.97 2013.75 3934.2 1949.57 4143.38 1873.85C4165.26 1865.92 4186.95 1857.84 4208.51 1849.67C4165.98 1806.35 4126.15 1758.56 4089.42 1710.34C3922.64 1771.11 3775.63 1814.61 3661.18 1833.33C3574.08 1847.56 3521.67 1844.53 3479.52 1835.34C3412.73 1820.78 3356.07 1784.34 3358.46 1718.73C3360.34 1666.69 3410.84 1650.68 3442.93 1659.69C3481.57 1670.55 3470.39 1717.36 3477.41 1724.91C3483.12 1731.06 3510.05 1710.34 3500.89 1659.76C3478.08 1533.89 3330.22 1538.98 3263.12 1599.23C3229.41 1629.47 3210.58 1676.93 3208.87 1725.39C3161.05 1683.37 3115 1623.11 3092.75 1565.8C3054.59 1467.44 3074.48 1316.31 3183.68 1290.57C3275.29 1268.97 3315.53 1362.72 3280.66 1414.66C3263.9 1439.63 3224.16 1460.54 3197.61 1432.2C3180.68 1414.14 3188.86 1401.03 3180.94 1402.83C3151.2 1409.58 3148.7 1490.94 3214.75 1521.63C3271.88 1548.19 3341.6 1518.33 3373.29 1460.79C3485.49 1582.58 3618.06 1621.22 3792.85 1615.86C3879.95 1613.19 3982.13 1598.95 4077.2 1570.17C4178.74 1539.43 4271.02 1492.32 4385.79 1419.54C4354.04 1364.71 4321.36 1311.96 4280.5 1263.07C4159.33 1335.08 4035.21 1391.67 3918.34 1422.74C3788.37 1457.3 3666.1 1459.39 3557.5 1408.81C3602.36 1398.46 3634.79 1373 3644.53 1329.3C3650.95 1300.46 3645.93 1267.98 3638.18 1248.24C3625.31 1215.36 3588.82 1204.15 3585.44 1212.19C3582.09 1220.18 3602.57 1276.43 3554.13 1300.88C3509.6 1323.34 3435.44 1304.07 3425.94 1234.95C3421.66 1203.74 3431.84 1165.33 3453.03 1141.14C3474.23 1116.95 3506.43 1106.99 3544.96 1104.98C3708.46 1096.43 3824.34 1238.83 3917.13 1378.83C3990.23 1358.54 4064.26 1328.58 4133.44 1294.65C4091.49 1241.93 4049.89 1197.93 4012.55 1160.8C3932.81 1081.52 3872.24 1034.55 3772.42 1000.02C3872.24 965.489 3932.81 918.519 4012.55 839.242C4049.89 802.117 4091.49 758.108 4133.44 705.39C4064.28 671.466 3990.23 641.497 3917.13 621.214C3824.34 761.213 3708.46 903.614 3544.96 895.065C3506.42 893.048 3474.23 883.09 3453.03 858.901C3431.84 834.711 3421.66 796.289 3425.94 765.088C3435.44 695.976 3509.6 676.685 3554.13 699.162C3602.57 723.608 3582.09 779.864 3585.44 787.852C3588.82 795.889 3625.29 784.683 3638.18 751.8C3645.91 732.061 3650.93 699.594 3644.53 670.746C3634.81 627.025 3602.36 601.587 3557.5 591.229C3666.09 540.656 3788.37 542.737 3918.34 577.301C4035.21 608.374 4159.33 664.967 4280.5 736.976C4321.36 688.068 4354.06 635.334 4385.79 580.503C4271 507.725 4178.74 460.611 4077.2 429.873C3982.13 401.105 3879.95 386.857 3792.85 384.199C3618.06 378.836 3485.49 417.482 3373.29 539.263C3341.6 481.743 3271.88 451.886 3214.75 478.429C3148.72 509.134 3151.2 590.492 3180.94 597.232C3188.86 599.025 3180.68 585.93 3197.61 567.855C3224.16 539.519 3263.9 560.427 3280.66 585.401C3315.53 637.351 3275.31 731.084 3183.68 709.488C3074.48 683.745 3054.59 532.619 3092.75 434.26C3115 376.931 3161.05 316.689 3208.87 274.665C3210.59 323.124 3229.43 370.591 3263.12 400.833C3330.24 461.075 3478.08 466.166 3500.89 340.286C3510.05 289.697 3483.13 268.982 3477.41 275.129C3470.39 282.685 3481.57 329.496 3442.93 340.35C3410.82 349.363 3360.34 333.354 3358.46 281.309C3356.08 215.703 3412.73 179.267 3479.52 164.698C3521.67 155.493 3574.08 152.484 3661.18 166.716C3775.63 185.43 3922.64 228.927 4089.42 289.697C4126.15 241.494 4165.98 193.691 4208.51 150.37C4186.96 142.19 4165.27 134.105 4143.38 126.197C3934.2 50.4576 3716.97 -13.7068 3516.81 3.39087C3479.04 6.62471 3444.54 12.1478 3413.64 20.1684C3316.21 35.361 3197.8 100.454 3110.73 178.899C3138.62 110.924 3067.93 65.1059 3036.49 32.4794C3020.28 15.6538 3009.95 -4.94986 3006.21 1.06955V798.739C3116.85 798.739 3206.53 888.822 3206.53 1000.04V1000.04ZM3006.21 1119.46V880.609C3071.83 880.609 3125.01 933.999 3125.04 1000.04C3125.01 1066.07 3071.83 1119.46 3006.21 1119.46ZM5291.5 1561.4C5083.83 1352.03 4645.63 1503.49 4376.54 1602.92C4405.96 1653.46 4436.12 1701.65 4472.71 1747.69C4601.48 1699.99 4743.44 1655.98 4846.15 1633.31C4948.49 1610.74 5037.78 1606.48 5113.15 1618.12C5064.4 1662.54 5062.49 1734.58 5100.1 1763.97C5109.52 1771.34 5120.37 1774.59 5123.73 1769.82C5129.63 1761.46 5109.36 1714.31 5148.02 1691.31C5167.03 1680.01 5199.95 1675.84 5223.68 1686.91C5271.1 1709 5282.67 1792.98 5244.55 1834.32C5225.05 1855.48 5192.22 1866.46 5155.01 1869.22C5034.41 1878.14 4933.11 1791.32 4849.88 1676.21C4780.5 1691.77 4710.26 1712.04 4641.47 1734.29C4707.22 1810.31 4791.37 1894.95 4872.16 1937.1C4979.02 1992.86 5165.02 2030.85 5275.66 1964.58C5312.24 1942.67 5342.25 1908.94 5362.1 1871.19C5381.98 1908.94 5411.97 1942.67 5448.55 1964.58C5559.19 2030.86 5745.2 1992.86 5852.05 1937.1C5932.83 1894.95 6016.98 1810.29 6082.74 1734.29C6013.95 1712.04 5943.71 1691.77 5874.33 1676.21C5791.1 1791.32 5689.8 1878.12 5569.2 1869.22C5531.99 1866.46 5499.16 1855.48 5479.66 1834.32C5441.54 1792.98 5453.11 1709 5500.53 1686.91C5524.26 1675.84 5557.18 1680.01 5576.19 1691.31C5614.85 1714.31 5594.57 1761.46 5600.48 1769.82C5603.84 1774.57 5614.69 1771.32 5624.11 1763.97C5661.72 1734.58 5659.81 1662.53 5611.06 1618.12C5686.43 1606.46 5775.72 1610.74 5878.06 1633.31C5980.79 1655.98 6122.73 1699.97 6251.5 1747.69C6288.09 1701.65 6318.25 1653.46 6347.67 1602.92C6078.58 1503.49 5640.4 1352.04 5432.71 1561.4C5403.47 1590.87 5379.19 1621.03 5362.09 1653.37C5345.01 1621.03 5320.71 1590.87 5291.46 1561.4H5291.5ZM4702.98 1453.56C4554.52 1230.09 4369.91 1002.85 4104 1046.93C4017.81 1061.21 4083.32 1070.67 4130.54 1091.48C4306.32 1169.01 4390.93 1345.82 4490.08 1516.95C4560.13 1493 4630.92 1471.23 4702.96 1453.56H4702.98ZM4073.04 1615.89C4148.51 1594.45 4216.78 1564.95 4285.15 1528.35C4382.06 1699.06 4473.94 1868.18 4649.1 1945.44C4700.06 1967.91 4770.8 1978.11 4677.73 1993.53C4414.17 2037.2 4227.44 1835.18 4073.04 1615.87V1615.89ZM5291.48 438.694C5320.72 409.221 5345.01 379.06 5362.1 346.722C5379.19 379.06 5403.49 409.221 5432.73 438.694C5640.4 648.061 6078.6 496.599 6347.68 397.167C6318.27 346.626 6288.1 298.438 6251.51 252.396C6122.74 300.103 5980.79 344.112 5878.07 366.781C5775.74 389.354 5686.45 393.613 5611.08 381.974C5659.82 337.549 5661.74 265.508 5624.13 236.115C5614.71 228.751 5603.86 225.501 5600.5 230.272C5594.6 238.628 5614.87 285.775 5576.21 308.78C5557.2 320.083 5524.28 324.245 5500.55 313.183C5453.13 291.09 5441.56 207.107 5479.68 165.771C5499.18 144.607 5532.01 133.625 5569.22 130.871C5689.81 121.954 5791.11 208.772 5874.34 323.877C5943.72 308.316 6013.97 288.049 6082.76 265.796C6017.01 189.785 5932.86 105.145 5852.07 62.9927C5745.22 7.23305 5559.21 -30.7565 5448.57 35.5051C5411.98 57.4216 5381.98 91.1527 5362.12 128.902C5342.25 91.1527 5312.26 57.4216 5275.67 35.5051C5165.03 -30.7725 4979.02 7.23305 4872.18 62.9927C4791.4 105.145 4707.25 189.801 4641.48 265.796C4710.27 288.049 4780.52 308.316 4849.9 323.877C4933.13 208.772 5034.43 121.97 5155.03 130.871C5192.24 133.625 5225.06 144.607 5244.57 165.771C5282.68 207.107 5271.11 291.09 5223.69 313.183C5199.96 324.245 5167.04 320.083 5148.03 308.78C5109.37 285.775 5129.66 238.628 5123.75 230.272C5120.38 225.517 5109.53 228.767 5100.11 236.115C5062.51 265.508 5064.42 337.565 5113.17 381.974C5037.79 393.629 4948.51 389.354 4846.17 366.781C4743.45 344.112 4601.5 300.119 4472.73 252.396C4436.14 298.438 4405.98 346.626 4376.56 397.167C4645.64 496.599 5083.83 648.045 5291.51 438.694H5291.48ZM4702.96 546.531C4630.9 528.857 4560.13 507.101 4490.08 483.135C4390.93 654.273 4306.32 831.077 4130.54 908.609C4083.32 929.437 4017.81 938.882 4104 953.162C4369.91 997.219 4554.51 770.002 4702.98 546.531H4702.96ZM4073.03 384.199C4227.42 164.907 4414.15 -37.1281 4677.72 6.54466C4770.76 21.9614 4700.03 32.1752 4649.08 54.636C4473.92 131.896 4382.04 301.016 4285.14 471.721C4216.76 435.124 4148.49 405.619 4073.03 384.183V384.199ZM7517.66 1000.05C7517.66 1111.27 7607.35 1201.35 7717.98 1201.35V1998.99C7714.24 2005.01 7703.91 1984.4 7687.71 1967.58C7656.27 1934.95 7585.58 1889.13 7613.47 1821.16C7526.4 1899.6 7407.98 1964.7 7310.55 1979.89C7279.65 1987.91 7245.15 1993.43 7207.39 1996.67C7007.23 2013.76 6790 1949.58 6580.82 1873.86C6558.94 1865.94 6537.25 1857.85 6515.69 1849.69C6558.22 1806.37 6598.04 1758.58 6634.77 1710.36C6801.55 1771.13 6948.57 1814.63 7063.02 1833.34C7150.12 1847.57 7202.53 1844.55 7244.68 1835.36C7311.46 1820.79 7368.13 1784.35 7365.74 1718.75C7363.86 1666.7 7313.36 1650.69 7281.26 1659.71C7242.62 1670.56 7253.81 1717.37 7246.78 1724.93C7241.08 1731.08 7214.14 1710.36 7223.31 1659.77C7246.11 1533.91 7393.97 1539 7461.08 1599.24C7494.78 1629.48 7513.62 1676.95 7515.32 1725.41C7563.14 1683.38 7609.19 1623.13 7631.44 1565.81C7669.61 1467.45 7649.72 1316.33 7540.51 1290.59C7448.9 1268.99 7408.67 1362.74 7443.53 1414.67C7460.3 1439.65 7500.04 1460.55 7526.59 1432.22C7543.51 1414.16 7535.34 1401.05 7543.26 1402.84C7572.99 1409.6 7575.49 1490.96 7509.44 1521.65C7452.31 1548.2 7382.6 1518.35 7350.9 1460.81C7238.72 1582.59 7106.14 1621.24 6931.34 1615.87C6844.24 1613.2 6742.06 1598.97 6646.99 1570.18C6545.46 1539.45 6453.17 1492.33 6338.41 1419.56C6370.15 1364.72 6402.83 1311.97 6443.69 1263.08C6564.86 1335.09 6688.98 1391.68 6805.85 1422.76C6935.82 1457.32 7058.09 1459.4 7166.69 1408.83C7121.83 1398.47 7089.4 1373.02 7079.67 1329.31C7073.25 1300.48 7078.27 1268 7086.01 1248.26C7098.89 1215.38 7135.38 1204.17 7138.76 1212.21C7142.1 1220.19 7121.63 1276.45 7170.07 1300.9C7214.59 1323.36 7288.75 1304.08 7298.25 1234.97C7302.54 1203.75 7292.36 1165.35 7271.16 1141.16C7249.97 1116.97 7217.76 1107.01 7179.23 1104.99C7015.74 1096.44 6899.85 1238.84 6807.06 1378.84C6733.97 1358.56 6659.93 1328.59 6590.76 1294.67C6632.7 1241.95 6674.31 1197.94 6711.64 1160.82C6791.38 1081.54 6851.95 1034.57 6951.77 1000.04C6851.95 965.505 6791.38 918.535 6711.64 839.258C6674.31 802.133 6632.68 758.124 6590.76 705.406C6659.92 671.482 6733.97 641.513 6807.06 621.23C6899.85 761.229 7015.74 903.63 7179.23 895.081C7217.78 893.064 7249.97 883.106 7271.16 858.917C7292.36 834.727 7302.54 796.305 7298.25 765.104C7288.75 695.992 7214.59 676.701 7170.07 699.178C7121.63 723.624 7142.1 779.88 7138.76 787.868C7135.38 795.905 7098.9 784.699 7086.01 751.816C7078.28 732.077 7073.26 699.61 7079.67 670.762C7089.39 627.041 7121.83 601.603 7166.69 591.245C7058.11 540.672 6935.82 542.753 6805.85 577.317C6688.98 608.39 6564.86 664.983 6443.69 736.992C6402.83 688.084 6370.14 635.35 6338.41 580.519C6453.19 507.741 6545.46 460.627 6646.99 429.889C6742.08 401.121 6844.24 386.873 6931.34 384.215C7106.14 378.852 7238.7 417.498 7350.9 539.279C7382.6 481.759 7452.31 451.902 7509.44 478.445C7575.49 509.15 7572.99 590.508 7543.26 597.248C7535.34 599.041 7543.51 585.946 7526.59 567.871C7500.04 539.535 7460.3 560.443 7443.53 585.417C7408.67 637.367 7448.89 731.1 7540.51 709.504C7649.72 683.761 7669.61 532.635 7631.44 434.276C7609.19 376.947 7563.14 316.705 7515.32 274.681C7513.6 323.14 7494.76 370.607 7461.08 400.849C7393.96 461.091 7246.11 466.182 7223.31 340.302C7214.14 289.713 7241.06 268.998 7246.78 275.145C7253.81 282.701 7242.62 329.512 7281.26 340.366C7313.37 349.379 7363.86 333.37 7365.74 281.325C7368.11 215.719 7311.46 179.283 7244.68 164.714C7202.53 155.509 7150.12 152.5 7063.02 166.732C6948.57 185.446 6801.55 228.943 6634.77 289.713C6598.04 241.51 6558.22 193.707 6515.69 150.386C6537.25 142.206 6558.92 134.121 6580.82 126.213C6790 50.4736 7007.23 -13.6908 7207.39 3.40688C7245.15 6.64072 7279.65 12.1639 7310.55 20.1844C7407.98 35.377 7526.4 100.47 7613.47 178.915C7585.58 110.94 7656.27 65.1219 7687.71 32.4954C7703.91 15.6698 7714.24 -4.93385 7717.98 1.08556V798.739C7607.35 798.739 7517.66 888.822 7517.66 1000.04V1000.05ZM7717.98 1119.48V880.625C7652.36 880.625 7599.17 934.015 7599.16 1000.05C7599.19 1066.09 7652.36 1119.48 7717.98 1119.48V1119.48ZM6021.2 1453.57C6093.26 1471.25 6164.03 1493.02 6234.08 1516.97C6333.23 1345.83 6417.85 1169.03 6593.63 1091.5C6640.84 1070.67 6706.37 1061.22 6620.16 1046.94C6354.25 1002.89 6169.65 1230.1 6021.19 1453.57H6021.2ZM6651.14 1615.91C6496.74 1835.2 6310.01 2037.23 6046.44 1993.56C5953.4 1978.14 6024.13 1967.93 6075.08 1945.47C6250.24 1868.21 6342.12 1699.09 6439.02 1528.38C6507.4 1564.98 6575.67 1594.49 6651.14 1615.92V1615.91ZM6021.2 546.531C6169.65 770.002 6354.26 997.235 6620.18 953.162C6706.38 938.882 6640.86 929.421 6593.64 908.609C6417.86 831.077 6333.25 654.273 6234.1 483.135C6164.05 507.085 6093.26 528.857 6021.22 546.531H6021.2ZM6651.14 384.199C6575.67 405.635 6507.4 435.14 6439.02 471.737C6342.12 301.032 6250.24 131.912 6075.08 54.652C6024.12 32.1752 5953.38 21.9774 6046.44 6.56067C6310.01 -37.1121 6496.74 164.907 6651.14 384.215V384.199Z" fill="#EBB633"/>
</g>
<g clip-path="url(#clip2_4_5)">
<path fill-rule="evenodd" clip-rule="evenodd" d="M740.451 2562.2C924.104 2521.37 955.577 2724.79 849.703 2749.54C837.003 2752.5 824.908 2752.22 823.728 2749.69C821.784 2745.54 850.994 2735.84 846.309 2697.77C835.903 2613.13 676.471 2652.42 727.018 2775.49C735.734 2796.71 749.901 2819.25 766.505 2837.1C832.907 2908.48 1011.17 2910.02 1087.55 2891.16C1189.01 2866.1 1282.12 2808.57 1393.81 2734.7C1433.67 2783.71 1476.69 2830.42 1522.3 2870.04C1435.85 2926.06 1360.12 2972.34 1292.45 3000.02C1360.12 3027.7 1435.85 3073.98 1522.3 3130C1476.69 3169.62 1433.67 3216.35 1393.81 3265.34C1282.11 3191.47 1189.01 3133.94 1087.55 3108.88C1011.17 3090.02 832.907 3091.56 766.505 3162.95C749.901 3180.8 735.734 3203.34 727.018 3224.55C676.471 3347.61 835.887 3386.91 846.309 3302.27C850.994 3264.2 821.784 3254.52 823.728 3250.36C824.908 3247.84 837.019 3247.54 849.703 3250.5C955.577 3275.23 924.104 3478.66 740.451 3437.84C706.493 3430.28 675.754 3414.75 650.337 3390.61C624.921 3414.75 594.182 3430.28 560.224 3437.84C376.57 3478.68 345.098 3275.25 450.972 3250.5C463.672 3247.54 475.767 3247.83 476.946 3250.36C478.89 3254.5 449.681 3264.2 454.366 3302.27C464.772 3386.91 624.204 3347.63 573.657 3224.55C564.941 3203.34 550.774 3180.8 534.17 3162.95C467.767 3091.56 289.5 3090.02 213.123 3108.88C111.663 3133.94 18.5534 3191.47 -93.1366 3265.34C-132.991 3216.34 -176.016 3169.62 -221.622 3130C-135.174 3073.98 -59.4495 3027.7 8.22738 3000.02C-59.4495 2972.34 -135.174 2926.06 -221.622 2870.04C-176.016 2830.42 -132.991 2783.69 -93.1366 2734.7C18.5534 2808.57 111.663 2866.1 213.123 2891.16C289.5 2910.02 467.767 2908.48 534.17 2837.1C550.774 2819.25 564.941 2796.71 573.657 2775.49C624.204 2652.43 464.787 2613.13 454.366 2697.77C449.681 2735.84 478.89 2745.52 476.946 2749.69C475.767 2752.2 463.656 2752.5 450.972 2749.54C345.098 2724.81 376.57 2521.38 560.224 2562.2C594.182 2569.76 624.921 2585.29 650.337 2609.43C675.754 2585.29 706.493 2569.76 740.451 2562.2V2562.2ZM650.337 2915.03C603.615 2915.03 565.737 2953.08 565.737 3000.02C565.737 3046.96 603.615 3085.01 650.337 3085.01C697.059 3085.01 734.937 3046.96 734.937 3000.02C734.937 2953.08 697.059 2915.03 650.337 2915.03ZM-1505.25 3000.04C-1505.25 3111.25 -1594.94 3201.34 -1705.57 3201.34V3998.97C-1701.83 4004.99 -1691.5 3984.39 -1675.3 3967.56C-1643.86 3934.94 -1573.17 3889.12 -1601.06 3821.14C-1513.97 3899.59 -1395.57 3964.68 -1298.14 3979.87C-1267.24 3987.89 -1232.74 3993.42 -1194.98 3996.65C-994.815 4013.75 -777.586 3949.57 -568.405 3873.85C-546.526 3865.92 -524.838 3857.84 -503.277 3849.67C-545.809 3806.35 -585.631 3758.56 -622.361 3710.34C-789.139 3771.11 -936.158 3814.61 -1050.6 3833.33C-1137.71 3847.56 -1190.12 3844.53 -1232.27 3835.34C-1299.05 3820.78 -1355.72 3784.34 -1353.33 3718.73C-1351.45 3666.69 -1300.95 3650.68 -1268.85 3659.69C-1230.21 3670.55 -1241.4 3717.36 -1234.37 3724.91C-1228.66 3731.06 -1201.73 3710.34 -1210.9 3659.76C-1233.7 3533.89 -1381.56 3538.98 -1448.67 3599.23C-1482.37 3629.47 -1501.2 3676.93 -1502.91 3725.39C-1550.73 3683.37 -1596.78 3623.11 -1619.03 3565.8C-1657.19 3467.44 -1637.31 3316.31 -1528.1 3290.57C-1436.49 3268.97 -1396.26 3362.72 -1431.12 3414.66C-1447.89 3439.63 -1487.63 3460.54 -1514.18 3432.2C-1531.1 3414.14 -1522.92 3401.03 -1530.84 3402.83C-1560.58 3409.58 -1563.08 3490.94 -1497.03 3521.63C-1439.9 3548.19 -1370.19 3518.33 -1338.49 3460.79C-1226.29 3582.58 -1093.73 3621.22 -918.932 3615.86C-831.83 3613.19 -729.653 3598.95 -634.584 3570.17C-533.044 3539.43 -440.764 3492.32 -325.998 3419.54C-357.741 3364.71 -390.424 3311.96 -431.282 3263.07C-552.454 3335.08 -676.573 3391.67 -793.442 3422.74C-923.41 3457.3 -1045.68 3459.39 -1154.28 3408.81C-1109.42 3398.46 -1076.99 3373 -1067.26 3329.3C-1060.83 3300.46 -1065.85 3267.98 -1073.6 3248.24C-1086.47 3215.36 -1122.97 3204.15 -1126.34 3212.19C-1129.69 3220.18 -1109.21 3276.43 -1157.66 3300.88C-1202.18 3323.34 -1276.34 3304.07 -1285.84 3234.95C-1290.13 3203.74 -1279.94 3165.33 -1258.75 3141.14C-1237.56 3116.95 -1205.35 3106.99 -1166.82 3104.98C-1003.32 3096.43 -887.444 3238.83 -794.653 3378.83C-721.558 3358.54 -647.523 3328.58 -578.348 3294.65C-620.29 3241.93 -661.897 3197.93 -699.233 3160.8C-778.973 3081.52 -839.543 3034.55 -939.361 3000.02C-839.543 2965.49 -778.973 2918.52 -699.233 2839.24C-661.897 2802.12 -620.29 2758.11 -578.348 2705.39C-647.507 2671.47 -721.558 2641.5 -794.653 2621.21C-887.444 2761.21 -1003.32 2903.61 -1166.82 2895.07C-1205.37 2893.05 -1237.56 2883.09 -1258.75 2858.9C-1279.94 2834.71 -1290.13 2796.29 -1285.84 2765.09C-1276.34 2695.98 -1202.18 2676.69 -1157.66 2699.16C-1109.21 2723.61 -1129.69 2779.86 -1126.34 2787.85C-1122.97 2795.89 -1086.49 2784.68 -1073.6 2751.8C-1065.87 2732.06 -1060.85 2699.59 -1067.26 2670.75C-1076.98 2627.03 -1109.42 2601.59 -1154.28 2591.23C-1045.7 2540.66 -923.41 2542.74 -793.442 2577.3C-676.573 2608.37 -552.454 2664.97 -431.282 2736.98C-390.424 2688.07 -357.725 2635.33 -325.998 2580.5C-440.779 2507.73 -533.044 2460.61 -634.584 2429.87C-729.653 2401.1 -831.83 2386.86 -918.932 2384.2C-1093.73 2378.84 -1226.29 2417.48 -1338.49 2539.26C-1370.19 2481.74 -1439.9 2451.89 -1497.03 2478.43C-1563.07 2509.13 -1560.58 2590.49 -1530.84 2597.23C-1522.92 2599.03 -1531.1 2585.93 -1514.18 2567.86C-1487.63 2539.52 -1447.89 2560.43 -1431.12 2585.4C-1396.26 2637.35 -1436.48 2731.08 -1528.1 2709.49C-1637.31 2683.75 -1657.19 2532.62 -1619.03 2434.26C-1596.78 2376.93 -1550.73 2316.69 -1502.91 2274.66C-1501.19 2323.12 -1482.35 2370.59 -1448.67 2400.83C-1381.55 2461.07 -1233.7 2466.17 -1210.9 2340.29C-1201.73 2289.7 -1228.65 2268.98 -1234.37 2275.13C-1241.4 2282.69 -1230.21 2329.5 -1268.85 2340.35C-1300.96 2349.36 -1351.45 2333.35 -1353.33 2281.31C-1355.7 2215.7 -1299.05 2179.27 -1232.27 2164.7C-1190.12 2155.49 -1137.71 2152.48 -1050.6 2166.72C-936.158 2185.43 -789.139 2228.93 -622.361 2289.7C-585.631 2241.49 -545.809 2193.69 -503.277 2150.37C-524.822 2142.19 -546.51 2134.11 -568.405 2126.2C-777.586 2050.49 -994.799 1986.31 -1194.98 2003.41C-1232.74 2006.64 -1267.24 2012.16 -1298.14 2020.18C-1395.57 2035.38 -1513.99 2100.47 -1601.06 2178.91C-1573.17 2110.94 -1643.86 2065.14 -1675.3 2032.51C-1691.5 2015.69 -1701.83 1995.08 -1705.57 2001.1V2798.72C-1594.94 2798.72 -1505.25 2888.81 -1505.25 3000.02V3000.04ZM-1705.57 3119.45V2880.59C-1639.95 2880.59 -1586.78 2933.98 -1586.75 3000.02C-1586.78 3066.06 -1639.95 3119.45 -1705.57 3119.45ZM579.712 3561.38C372.045 3352.01 -66.1582 3503.47 -335.24 3602.91C-305.824 3653.45 -275.659 3701.64 -239.071 3747.68C-110.299 3699.97 31.6522 3655.96 134.371 3633.29C236.707 3610.72 325.992 3606.46 401.365 3618.1C352.619 3662.53 350.707 3734.57 388.314 3763.96C397.732 3771.32 408.584 3774.57 411.946 3769.8C417.842 3761.45 397.573 3714.3 436.232 3691.29C455.242 3679.99 488.165 3675.83 511.892 3686.89C559.315 3708.98 570.884 3792.97 532.767 3834.3C513.263 3855.47 480.436 3866.45 443.227 3869.2C322.629 3878.12 221.329 3791.3 138.099 3676.2C68.7175 3691.76 -1.52504 3712.03 -70.3174 3734.28C-4.56867 3810.29 79.5853 3894.93 160.377 3937.08C267.239 3992.84 453.235 4030.83 563.873 3964.57C600.46 3942.65 630.466 3908.92 650.321 3871.17C670.193 3908.92 700.183 3942.65 736.77 3964.57C847.408 4030.85 1033.42 3992.84 1140.27 3937.08C1221.04 3894.93 1305.2 3810.27 1370.96 3734.28C1302.17 3712.03 1231.93 3691.76 1162.54 3676.2C1079.31 3791.3 978.013 3878.1 857.416 3869.2C820.207 3866.45 787.38 3855.47 767.875 3834.3C729.758 3792.97 741.328 3708.98 788.751 3686.89C812.478 3675.83 845.4 3679.99 864.411 3691.29C903.07 3714.3 882.784 3761.45 888.696 3769.8C892.059 3774.56 902.911 3771.31 912.328 3763.96C949.935 3734.57 948.023 3662.51 899.277 3618.1C974.651 3606.45 1063.94 3610.72 1166.27 3633.29C1269.01 3655.96 1410.94 3699.95 1539.71 3747.68C1576.3 3701.64 1606.47 3653.45 1635.88 3602.91C1366.8 3503.47 928.614 3352.03 720.93 3561.38C691.689 3590.85 667.404 3621.01 650.306 3653.35C633.223 3621.01 608.922 3590.85 579.68 3561.38H579.712ZM-8.80728 3453.54C-157.26 3230.07 -341.87 3002.84 -607.781 3046.91C-693.974 3061.19 -628.465 3070.65 -581.248 3091.46C-405.467 3169 -320.851 3345.8 -221.702 3516.94C-151.651 3492.99 -80.8664 3471.22 -8.82323 3453.54H-8.80728ZM-638.743 3615.87C-563.274 3594.44 -495.007 3564.93 -426.629 3528.34C-329.727 3699.04 -237.844 3868.16 -62.6844 3945.42C-11.7235 3967.9 59.0129 3978.1 -34.0488 3993.51C-297.617 4037.19 -484.346 3835.17 -638.743 3615.86V3615.87ZM579.712 2438.68C608.954 2409.21 633.239 2379.04 650.337 2346.71C667.42 2379.04 691.721 2409.21 720.962 2438.68C928.63 2648.05 1366.83 2496.58 1635.91 2397.15C1606.5 2346.61 1576.33 2298.42 1539.75 2252.38C1410.97 2300.09 1269.02 2344.1 1166.3 2366.77C1063.97 2389.34 974.683 2393.6 899.309 2381.96C948.055 2337.53 949.967 2265.49 912.36 2236.1C902.942 2228.73 892.091 2225.49 888.728 2230.26C882.832 2238.61 903.102 2285.76 864.443 2308.76C845.432 2320.07 812.51 2324.23 788.783 2313.17C741.359 2291.07 729.79 2207.09 767.907 2165.76C787.412 2144.59 820.239 2133.61 857.447 2130.86C978.045 2121.94 1079.35 2208.76 1162.58 2323.86C1231.96 2308.3 1302.2 2288.03 1370.99 2265.78C1305.24 2189.77 1221.09 2105.13 1140.3 2062.98C1033.45 2007.22 847.44 1969.23 736.802 2035.49C700.214 2057.41 670.208 2091.14 650.353 2128.89C630.482 2091.14 600.492 2057.41 563.905 2035.49C453.266 1969.21 267.254 2007.22 160.409 2062.98C79.6331 2105.13 -4.52083 2189.78 -70.2855 2265.78C-1.49314 2288.03 68.7494 2308.3 138.131 2323.86C221.361 2208.76 322.661 2121.95 443.259 2130.86C480.468 2133.61 513.294 2144.59 532.799 2165.76C570.916 2207.09 559.347 2291.07 511.924 2313.17C488.196 2324.23 455.274 2320.07 436.263 2308.76C397.605 2285.76 417.89 2238.61 411.978 2230.26C408.616 2225.5 397.764 2228.75 388.346 2236.1C350.739 2265.49 352.651 2337.55 401.397 2381.96C326.024 2393.61 236.739 2389.34 134.403 2366.77C31.6841 2344.1 -110.267 2300.1 -239.039 2252.38C-275.627 2298.42 -305.792 2346.61 -335.209 2397.15C-66.1263 2496.58 372.06 2648.03 579.744 2438.68H579.712ZM-8.80728 2546.52C-80.8664 2528.84 -151.635 2507.09 -221.686 2483.12C-320.835 2654.26 -405.451 2831.06 -581.233 2908.59C-628.449 2929.42 -693.958 2938.87 -607.765 2953.15C-341.854 2997.2 -157.26 2769.99 -8.79133 2546.52H-8.80728ZM-638.743 2384.18C-484.33 2164.87 -297.601 1962.86 -34.0329 2006.53C59.0129 2021.95 -11.7235 2032.16 -62.6684 2054.62C-237.828 2131.88 -329.711 2301 -426.613 2471.7C-494.991 2435.11 -563.258 2405.6 -638.727 2384.17L-638.743 2384.18ZM2805.9 3000.04C2805.9 3111.25 2895.58 3201.34 3006.22 3201.34V3998.97C3002.47 4004.99 2992.15 3984.39 2975.94 3967.56C2944.5 3934.94 2873.81 3889.12 2901.7 3821.14C2814.63 3899.59 2696.21 3964.68 2598.79 3979.87C2567.89 3987.89 2533.39 3993.42 2495.62 3996.65C2295.46 4013.75 2078.23 3949.57 1869.05 3873.85C1847.17 3865.92 1825.48 3857.84 1803.92 3849.67C1846.45 3806.35 1886.27 3758.56 1923 3710.34C2089.78 3771.11 2236.8 3814.61 2351.25 3833.33C2438.35 3847.56 2490.76 3844.53 2532.91 3835.34C2599.69 3820.78 2656.36 3784.34 2653.97 3718.73C2652.09 3666.69 2601.59 3650.68 2569.5 3659.69C2530.85 3670.55 2542.04 3717.36 2535.01 3724.91C2529.31 3731.06 2502.38 3710.34 2511.54 3659.76C2534.34 3533.89 2682.21 3538.98 2749.31 3599.23C2783.01 3629.47 2801.85 3676.93 2803.55 3725.39C2851.37 3683.37 2897.43 3623.11 2919.67 3565.8C2957.84 3467.44 2937.95 3316.31 2828.75 3290.57C2737.13 3268.97 2696.9 3362.72 2731.76 3414.66C2748.53 3439.63 2788.27 3460.54 2814.82 3432.2C2831.74 3414.14 2823.57 3401.03 2831.49 3402.83C2861.22 3409.58 2863.72 3490.94 2797.67 3521.63C2740.54 3548.19 2670.83 3518.33 2639.13 3460.79C2526.95 3582.58 2394.37 3621.22 2219.57 3615.86C2132.47 3613.19 2030.3 3598.95 1935.23 3570.17C1833.69 3539.43 1741.41 3492.32 1626.64 3419.54C1658.38 3364.71 1691.07 3311.96 1731.92 3263.07C1853.1 3335.08 1977.22 3391.67 2094.08 3422.74C2224.05 3457.3 2346.32 3459.39 2454.92 3408.81C2410.06 3398.46 2377.64 3373 2367.9 3329.3C2361.48 3300.46 2366.5 3267.98 2374.24 3248.24C2387.12 3215.36 2423.61 3204.15 2426.99 3212.19C2430.33 3220.18 2409.86 3276.43 2458.3 3300.88C2502.82 3323.34 2576.99 3304.07 2586.48 3234.95C2590.77 3203.74 2580.59 3165.33 2559.39 3141.14C2538.2 3116.95 2505.99 3106.99 2467.46 3104.98C2303.97 3096.43 2188.09 3238.83 2095.3 3378.83C2022.2 3358.54 1948.17 3328.58 1878.99 3294.65C1920.93 3241.93 1962.54 3197.93 1999.88 3160.8C2079.62 3081.52 2140.19 3034.55 2240 3000.02C2140.19 2965.49 2079.62 2918.52 1999.88 2839.24C1962.54 2802.12 1920.92 2758.11 1878.99 2705.39C1948.15 2671.47 2022.2 2641.5 2095.3 2621.21C2188.09 2761.21 2303.97 2903.61 2467.46 2895.07C2506.01 2893.05 2538.2 2883.09 2559.39 2858.9C2580.59 2834.71 2590.77 2796.29 2586.48 2765.09C2576.99 2695.98 2502.82 2676.69 2458.3 2699.16C2409.86 2723.61 2430.33 2779.86 2426.99 2787.85C2423.61 2795.89 2387.13 2784.68 2374.24 2751.8C2366.51 2732.06 2361.49 2699.59 2367.9 2670.75C2377.62 2627.03 2410.06 2601.59 2454.92 2591.23C2346.34 2540.66 2224.05 2542.74 2094.08 2577.3C1977.22 2608.37 1853.1 2664.97 1731.92 2736.98C1691.07 2688.07 1658.37 2635.33 1626.64 2580.5C1741.42 2507.73 1833.69 2460.61 1935.23 2429.87C2030.31 2401.1 2132.47 2386.86 2219.57 2384.2C2394.37 2378.84 2526.93 2417.48 2639.13 2539.26C2670.83 2481.74 2740.54 2451.89 2797.67 2478.43C2863.72 2509.13 2861.22 2590.49 2831.49 2597.23C2823.57 2599.03 2831.74 2585.93 2814.82 2567.86C2788.27 2539.52 2748.53 2560.43 2731.76 2585.4C2696.9 2637.35 2737.12 2731.08 2828.75 2709.49C2937.95 2683.75 2957.84 2532.62 2919.67 2434.26C2897.43 2376.93 2851.37 2316.69 2803.55 2274.66C2801.83 2323.12 2783 2370.59 2749.31 2400.83C2682.19 2461.07 2534.34 2466.17 2511.54 2340.29C2502.38 2289.7 2529.29 2268.98 2535.01 2275.13C2542.04 2282.69 2530.85 2329.5 2569.5 2340.35C2601.61 2349.36 2652.09 2333.35 2653.97 2281.31C2656.34 2215.7 2599.69 2179.27 2532.91 2164.7C2490.76 2155.49 2438.35 2152.48 2351.25 2166.72C2236.8 2185.43 2089.78 2228.93 1923 2289.7C1886.27 2241.49 1846.45 2193.69 1803.92 2150.37C1825.48 2142.19 1847.15 2134.11 1869.05 2126.2C2078.23 2050.46 2295.46 1986.29 2495.62 2003.39C2533.39 2006.62 2567.89 2012.15 2598.79 2020.17C2696.21 2035.36 2814.63 2100.45 2901.7 2178.9C2873.81 2110.92 2944.5 2065.11 2975.94 2032.48C2992.15 2015.65 3002.47 1995.05 3006.22 2001.07V2798.72C2895.58 2798.72 2805.9 2888.81 2805.9 3000.02V3000.04ZM3006.22 3119.46V2880.61C2940.6 2880.61 2887.4 2934 2887.39 3000.04C2887.42 3066.07 2940.6 3119.46 3006.22 3119.46ZM1309.43 3453.56C1381.49 3471.23 1452.26 3493 1522.31 3516.95C1621.46 3345.82 1706.08 3169.01 1881.86 3091.48C1929.08 3070.65 1994.6 3061.21 1908.39 3046.93C1642.48 3002.87 1457.89 3230.09 1309.42 3453.56H1309.43ZM1939.37 3615.89C1784.97 3835.18 1598.24 4037.22 1334.68 3993.55C1241.63 3978.13 1312.37 3967.91 1363.31 3945.45C1538.47 3868.19 1630.35 3699.07 1727.26 3528.37C1795.63 3564.97 1863.9 3594.47 1939.37 3615.91V3615.89ZM1309.43 2546.52C1457.89 2769.99 1642.5 2997.22 1908.41 2953.15C1994.6 2938.87 1929.09 2929.4 1881.88 2908.59C1706.09 2831.06 1621.48 2654.26 1522.33 2483.12C1452.28 2507.07 1381.49 2528.84 1309.45 2546.52H1309.43ZM1939.37 2384.18C1863.9 2405.62 1795.63 2435.12 1727.26 2471.72C1630.35 2301.02 1538.47 2131.9 1363.31 2054.64C1312.35 2032.16 1241.61 2021.96 1334.68 2006.54C1598.24 1962.87 1784.97 2164.89 1939.37 2384.2V2384.18Z" fill="#EBB633"/>
<path fill-rule="evenodd" clip-rule="evenodd" d="M5452.27 2562.22C5635.93 2521.38 5667.4 2724.81 5561.53 2749.56C5548.83 2752.52 5536.73 2752.23 5535.55 2749.7C5533.61 2745.56 5562.82 2735.85 5558.13 2697.79C5547.73 2613.15 5388.29 2652.43 5438.84 2775.51C5447.56 2796.72 5461.72 2819.26 5478.33 2837.11C5544.73 2908.5 5723 2910.03 5799.38 2891.18C5900.83 2866.12 5993.94 2808.58 6105.63 2734.72C6145.49 2783.72 6188.51 2830.44 6234.12 2870.06C6147.67 2926.07 6071.95 2972.36 6004.27 3000.04C6071.95 3027.72 6147.67 3074 6234.12 3130.01C6188.51 3169.64 6145.49 3216.37 6105.63 3265.36C5993.93 3191.49 5900.83 3133.95 5799.38 3108.9C5723 3090.04 5544.73 3091.58 5478.33 3162.96C5461.72 3180.81 5447.56 3203.35 5438.84 3224.56C5388.29 3347.63 5547.71 3386.93 5558.13 3302.29C5562.82 3264.22 5533.61 3254.53 5535.55 3250.37C5536.73 3247.86 5548.84 3247.55 5561.53 3250.52C5667.4 3275.25 5635.93 3478.68 5452.27 3437.85C5418.32 3430.3 5387.58 3414.77 5362.16 3390.63C5336.74 3414.77 5306 3430.3 5272.05 3437.85C5088.39 3478.69 5056.92 3275.27 5162.79 3250.52C5175.5 3247.55 5187.59 3247.84 5188.77 3250.37C5190.71 3254.52 5161.5 3264.22 5166.19 3302.29C5176.59 3386.93 5336.03 3347.64 5285.48 3224.56C5276.76 3203.35 5262.6 3180.81 5245.99 3162.96C5179.59 3091.58 5001.32 3090.04 4924.95 3108.9C4823.49 3133.95 4730.38 3191.49 4618.69 3265.36C4578.83 3216.35 4535.81 3169.64 4490.2 3130.01C4576.65 3074 4652.37 3027.72 4720.05 3000.04C4652.36 2972.36 4576.65 2926.07 4490.2 2870.06C4535.81 2830.44 4578.83 2783.71 4618.69 2734.72C4730.38 2808.58 4823.49 2866.12 4924.95 2891.18C5001.32 2910.03 5179.59 2908.5 5245.99 2837.11C5262.6 2819.26 5276.76 2796.72 5285.48 2775.51C5336.03 2652.45 5176.61 2613.15 5166.19 2697.79C5161.5 2735.85 5190.71 2745.54 5188.77 2749.7C5187.59 2752.22 5175.48 2752.52 5162.79 2749.56C5056.92 2724.82 5088.39 2521.4 5272.05 2562.22C5306 2569.78 5336.74 2585.31 5362.16 2609.45C5387.58 2585.31 5418.32 2569.78 5452.27 2562.22V2562.22ZM5362.16 2915.04C5315.44 2915.04 5277.56 2953.1 5277.56 3000.04C5277.56 3046.98 5315.44 3085.03 5362.16 3085.03C5408.88 3085.03 5446.76 3046.98 5446.76 3000.04C5446.76 2953.1 5408.88 2915.04 5362.16 2915.04ZM3206.57 3000.04C3206.57 3111.25 3116.89 3201.34 3006.25 3201.34V3998.97C3009.99 4004.99 3020.32 3984.39 3036.53 3967.56C3067.97 3934.94 3138.65 3889.12 3110.77 3821.14C3197.85 3899.59 3316.25 3964.68 3413.68 3979.87C3444.58 3987.89 3479.08 3993.42 3516.84 3996.65C3717.01 4013.75 3934.24 3949.57 4143.42 3873.85C4165.3 3865.92 4186.99 3857.84 4208.55 3849.67C4166.01 3806.35 4126.19 3758.56 4089.46 3710.34C3922.68 3771.11 3775.66 3814.61 3661.22 3833.33C3574.12 3847.56 3521.7 3844.53 3479.56 3835.34C3412.77 3820.78 3356.11 3784.34 3358.5 3718.73C3360.38 3666.69 3410.88 3650.68 3442.97 3659.69C3481.61 3670.55 3470.43 3717.36 3477.45 3724.91C3483.16 3731.06 3510.09 3710.34 3500.93 3659.76C3478.12 3533.89 3330.26 3538.98 3263.16 3599.23C3229.45 3629.47 3210.62 3676.93 3208.91 3725.39C3161.09 3683.37 3115.04 3623.11 3092.79 3565.8C3054.63 3467.44 3074.51 3316.31 3183.72 3290.57C3275.33 3268.97 3315.57 3362.72 3280.7 3414.66C3263.94 3439.63 3224.19 3460.54 3197.65 3432.2C3180.72 3414.14 3188.9 3401.03 3180.98 3402.83C3151.24 3409.58 3148.74 3490.94 3214.79 3521.63C3271.92 3548.19 3341.64 3518.33 3373.33 3460.79C3485.53 3582.58 3618.1 3621.22 3792.89 3615.86C3879.99 3613.19 3982.17 3598.95 4077.24 3570.17C4178.78 3539.43 4271.06 3492.32 4385.82 3419.54C4354.08 3364.71 4321.4 3311.96 4280.54 3263.07C4159.37 3335.08 4035.25 3391.67 3918.38 3422.74C3788.41 3457.3 3666.14 3459.39 3557.54 3408.81C3602.4 3398.46 3634.83 3373 3644.57 3329.3C3650.99 3300.46 3645.97 3267.98 3638.22 3248.24C3625.35 3215.36 3588.86 3204.15 3585.48 3212.19C3582.13 3220.18 3602.61 3276.43 3554.17 3300.88C3509.64 3323.34 3435.48 3304.07 3425.98 3234.95C3421.7 3203.74 3431.88 3165.33 3453.07 3141.14C3474.27 3116.95 3506.47 3106.99 3545 3104.98C3708.5 3096.43 3824.38 3238.83 3917.17 3378.83C3990.26 3358.54 4064.3 3328.58 4133.47 3294.65C4091.53 3241.93 4049.93 3197.93 4012.59 3160.8C3932.85 3081.52 3872.28 3034.55 3772.46 3000.02C3872.28 2965.49 3932.85 2918.52 4012.59 2839.24C4049.93 2802.12 4091.53 2758.11 4133.47 2705.39C4064.32 2671.47 3990.26 2641.5 3917.17 2621.21C3824.38 2761.21 3708.5 2903.61 3545 2895.07C3506.46 2893.05 3474.27 2883.09 3453.07 2858.9C3431.88 2834.71 3421.7 2796.29 3425.98 2765.09C3435.48 2695.98 3509.64 2676.69 3554.17 2699.16C3602.61 2723.61 3582.13 2779.86 3585.48 2787.85C3588.86 2795.89 3625.33 2784.68 3638.22 2751.8C3645.95 2732.06 3650.97 2699.59 3644.57 2670.75C3634.85 2627.03 3602.4 2601.59 3557.54 2591.23C3666.13 2540.66 3788.41 2542.74 3918.38 2577.3C4035.25 2608.37 4159.37 2664.97 4280.54 2736.98C4321.4 2688.07 4354.1 2635.33 4385.82 2580.5C4271.04 2507.73 4178.78 2460.61 4077.24 2429.87C3982.17 2401.1 3879.99 2386.86 3792.89 2384.2C3618.1 2378.84 3485.53 2417.48 3373.33 2539.26C3341.64 2481.74 3271.92 2451.89 3214.79 2478.43C3148.76 2509.13 3151.24 2590.49 3180.98 2597.23C3188.9 2599.03 3180.72 2585.93 3197.65 2567.86C3224.19 2539.52 3263.94 2560.43 3280.7 2585.4C3315.57 2637.35 3275.35 2731.08 3183.72 2709.49C3074.51 2683.75 3054.63 2532.62 3092.79 2434.26C3115.04 2376.93 3161.09 2316.69 3208.91 2274.66C3210.63 2323.12 3229.47 2370.59 3263.16 2400.83C3330.28 2461.07 3478.12 2466.17 3500.93 2340.29C3510.09 2289.7 3483.17 2268.98 3477.45 2275.13C3470.43 2282.69 3481.61 2329.5 3442.97 2340.35C3410.86 2349.36 3360.38 2333.35 3358.5 2281.31C3356.12 2215.7 3412.77 2179.27 3479.56 2164.7C3521.7 2155.49 3574.12 2152.48 3661.22 2166.72C3775.66 2185.43 3922.68 2228.93 4089.46 2289.7C4126.19 2241.49 4166.01 2193.69 4208.55 2150.37C4187 2142.19 4165.31 2134.11 4143.42 2126.2C3934.24 2050.46 3717.01 1986.29 3516.84 2003.39C3479.08 2006.62 3444.58 2012.15 3413.68 2020.17C3316.25 2035.36 3197.84 2100.45 3110.77 2178.9C3138.65 2110.92 3067.97 2065.11 3036.53 2032.48C3020.32 2015.65 3009.99 1995.05 3006.25 2001.07V2798.74C3116.89 2798.74 3206.57 2888.82 3206.57 3000.04V3000.04ZM3006.25 3119.46V2880.61C3071.87 2880.61 3125.05 2934 3125.08 3000.04C3125.05 3066.07 3071.87 3119.46 3006.25 3119.46ZM5291.54 3561.4C5083.87 3352.03 4645.66 3503.49 4376.58 3602.92C4406 3653.46 4436.16 3701.65 4472.75 3747.69C4601.52 3699.99 4743.47 3655.98 4846.19 3633.31C4948.53 3610.74 5037.81 3606.48 5113.19 3618.12C5064.44 3662.54 5062.53 3734.58 5100.14 3763.97C5109.55 3771.34 5120.41 3774.59 5123.77 3769.82C5129.67 3761.46 5109.4 3714.31 5148.05 3691.31C5167.07 3680.01 5199.99 3675.84 5223.72 3686.91C5271.14 3709 5282.71 3792.98 5244.59 3834.32C5225.08 3855.48 5192.26 3866.46 5155.05 3869.22C5034.45 3878.14 4933.15 3791.32 4849.92 3676.21C4780.54 3691.77 4710.3 3712.04 4641.51 3734.29C4707.25 3810.31 4791.41 3894.95 4872.2 3937.1C4979.06 3992.86 5165.06 4030.85 5275.7 3964.58C5312.28 3942.67 5342.29 3908.94 5362.14 3871.19C5382.02 3908.94 5412.01 3942.67 5448.59 3964.58C5559.23 4030.86 5745.24 3992.86 5852.09 3937.1C5932.86 3894.95 6017.02 3810.29 6082.78 3734.29C6013.99 3712.04 5943.75 3691.77 5874.37 3676.21C5791.14 3791.32 5689.84 3878.12 5569.24 3869.22C5532.03 3866.46 5499.2 3855.48 5479.7 3834.32C5441.58 3792.98 5453.15 3709 5500.57 3686.91C5524.3 3675.84 5557.22 3680.01 5576.23 3691.31C5614.89 3714.31 5594.61 3761.46 5600.52 3769.82C5603.88 3774.57 5614.73 3771.32 5624.15 3763.97C5661.76 3734.58 5659.85 3662.53 5611.1 3618.12C5686.47 3606.46 5775.76 3610.74 5878.1 3633.31C5980.83 3655.98 6122.76 3699.97 6251.54 3747.69C6288.12 3701.65 6318.29 3653.46 6347.71 3602.92C6078.62 3503.49 5640.44 3352.04 5432.75 3561.4C5403.51 3590.87 5379.23 3621.03 5362.13 3653.37C5345.05 3621.03 5320.74 3590.87 5291.5 3561.4H5291.54ZM4703.02 3453.56C4554.56 3230.09 4369.95 3002.85 4104.04 3046.93C4017.85 3061.21 4083.36 3070.67 4130.57 3091.48C4306.36 3169.01 4390.97 3345.82 4490.12 3516.95C4560.17 3493 4630.96 3471.23 4703 3453.56H4703.02ZM4073.08 3615.89C4148.55 3594.45 4216.82 3564.95 4285.19 3528.35C4382.1 3699.06 4473.98 3868.18 4649.14 3945.44C4700.1 3967.91 4770.84 3978.11 4677.77 3993.53C4414.21 4037.2 4227.48 3835.18 4073.08 3615.87V3615.89ZM5291.52 2438.69C5320.76 2409.22 5345.05 2379.06 5362.14 2346.72C5379.23 2379.06 5403.53 2409.22 5432.77 2438.69C5640.44 2648.06 6078.64 2496.6 6347.72 2397.17C6318.31 2346.63 6288.14 2298.44 6251.55 2252.4C6122.78 2300.1 5980.83 2344.11 5878.11 2366.78C5775.77 2389.35 5686.49 2393.61 5611.12 2381.97C5659.86 2337.55 5661.77 2265.51 5624.17 2236.12C5614.75 2228.75 5603.9 2225.5 5600.53 2230.27C5594.64 2238.63 5614.91 2285.78 5576.25 2308.78C5557.24 2320.08 5524.32 2324.25 5500.59 2313.18C5453.17 2291.09 5441.6 2207.11 5479.71 2165.77C5499.22 2144.61 5532.05 2133.62 5569.25 2130.87C5689.85 2121.95 5791.15 2208.77 5874.38 2323.88C5943.76 2308.32 6014.01 2288.05 6082.8 2265.8C6017.05 2189.78 5932.9 2105.14 5852.1 2062.99C5745.26 2007.23 5559.25 1969.24 5448.61 2035.51C5412.02 2057.42 5382.02 2091.15 5362.16 2128.9C5342.29 2091.15 5312.3 2057.42 5275.71 2035.51C5165.07 1969.23 4979.06 2007.23 4872.22 2062.99C4791.44 2105.14 4707.29 2189.8 4641.52 2265.8C4710.31 2288.05 4780.56 2308.32 4849.94 2323.88C4933.17 2208.77 5034.47 2121.97 5155.07 2130.87C5192.27 2133.62 5225.1 2144.61 5244.61 2165.77C5282.72 2207.11 5271.15 2291.09 5223.73 2313.18C5200 2324.25 5167.08 2320.08 5148.07 2308.78C5109.41 2285.78 5129.7 2238.63 5123.79 2230.27C5120.42 2225.52 5109.57 2228.77 5100.15 2236.12C5062.55 2265.51 5064.46 2337.56 5113.2 2381.97C5037.83 2393.63 4948.54 2389.35 4846.21 2366.78C4743.49 2344.11 4601.54 2300.12 4472.77 2252.4C4436.18 2298.44 4406.01 2346.63 4376.6 2397.17C4645.68 2496.6 5083.87 2648.05 5291.55 2438.69H5291.52ZM4703 2546.53C4630.94 2528.86 4560.17 2507.1 4490.12 2483.14C4390.97 2654.27 4306.36 2831.08 4130.57 2908.61C4083.36 2929.44 4017.85 2938.88 4104.04 2953.16C4369.95 2997.22 4554.55 2770 4703.02 2546.53H4703ZM4073.06 2384.2C4227.46 2164.91 4414.19 1962.87 4677.76 2006.54C4770.8 2021.96 4700.07 2032.18 4649.12 2054.64C4473.96 2131.9 4382.08 2301.02 4285.18 2471.72C4216.8 2435.12 4148.53 2405.62 4073.06 2384.18V2384.2ZM7517.7 3000.05C7517.7 3111.27 7607.39 3201.35 7718.02 3201.35V3998.99C7714.28 4005.01 7703.95 3984.4 7687.75 3967.58C7656.31 3934.95 7585.62 3889.13 7613.5 3821.16C7526.43 3899.6 7408.02 3964.7 7310.59 3979.89C7279.69 3987.91 7245.19 3993.43 7207.43 3996.67C7007.27 4013.76 6790.04 3949.58 6580.85 3873.86C6558.98 3865.94 6537.29 3857.85 6515.73 3849.69C6558.26 3806.37 6598.08 3758.58 6634.81 3710.36C6801.59 3771.13 6948.61 3814.63 7063.05 3833.34C7150.16 3847.57 7202.57 3844.55 7244.72 3835.36C7311.5 3820.79 7368.17 3784.35 7365.78 3718.75C7363.9 3666.7 7313.4 3650.69 7281.3 3659.71C7242.66 3670.56 7253.85 3717.37 7246.82 3724.93C7241.11 3731.08 7214.18 3710.36 7223.35 3659.77C7246.15 3533.91 7394.01 3539 7461.12 3599.24C7494.82 3629.48 7513.65 3676.95 7515.36 3725.41C7563.18 3683.38 7609.23 3623.13 7631.48 3565.81C7669.64 3467.45 7649.76 3316.33 7540.55 3290.59C7448.94 3268.99 7408.71 3362.74 7443.57 3414.67C7460.34 3439.65 7500.08 3460.55 7526.63 3432.22C7543.55 3414.16 7535.37 3401.05 7543.29 3402.84C7573.03 3409.6 7575.53 3490.96 7509.48 3521.65C7452.35 3548.2 7382.64 3518.35 7350.94 3460.81C7238.76 3582.59 7106.18 3621.24 6931.38 3615.87C6844.28 3613.2 6742.1 3598.97 6647.03 3570.18C6545.49 3539.45 6453.21 3492.33 6338.45 3419.56C6370.19 3364.72 6402.87 3311.97 6443.73 3263.08C6564.9 3335.09 6689.02 3391.68 6805.89 3422.76C6935.86 3457.32 7058.13 3459.4 7166.73 3408.83C7121.87 3398.47 7089.44 3373.02 7079.71 3329.31C7073.28 3300.48 7078.3 3268 7086.05 3248.26C7098.92 3215.38 7135.42 3204.17 7138.79 3212.21C7142.14 3220.19 7121.66 3276.45 7170.11 3300.9C7214.63 3323.36 7288.79 3304.08 7298.29 3234.97C7302.58 3203.75 7292.39 3165.35 7271.2 3141.16C7250.01 3116.97 7217.8 3107.01 7179.27 3104.99C7015.77 3096.44 6899.89 3238.84 6807.1 3378.84C6734.01 3358.56 6659.97 3328.59 6590.8 3294.67C6632.74 3241.95 6674.35 3197.94 6711.68 3160.82C6791.42 3081.54 6851.99 3034.57 6951.81 3000.04C6851.99 2965.51 6791.42 2918.53 6711.68 2839.26C6674.35 2802.13 6632.72 2758.12 6590.8 2705.41C6659.96 2671.48 6734.01 2641.51 6807.1 2621.23C6899.89 2761.23 7015.77 2903.63 7179.27 2895.08C7217.82 2893.06 7250.01 2883.11 7271.2 2858.92C7292.39 2834.73 7302.58 2796.31 7298.29 2765.1C7288.79 2695.99 7214.63 2676.7 7170.11 2699.18C7121.66 2723.62 7142.14 2779.88 7138.79 2787.87C7135.42 2795.9 7098.94 2784.7 7086.05 2751.82C7078.32 2732.08 7073.3 2699.61 7079.71 2670.76C7089.43 2627.04 7121.87 2601.6 7166.73 2591.24C7058.15 2540.67 6935.86 2542.75 6805.89 2577.32C6689.02 2608.39 6564.9 2664.98 6443.73 2736.99C6402.87 2688.08 6370.18 2635.35 6338.45 2580.52C6453.23 2507.74 6545.49 2460.63 6647.03 2429.89C6742.12 2401.12 6844.28 2386.87 6931.38 2384.22C7106.18 2378.85 7238.74 2417.5 7350.94 2539.28C7382.64 2481.76 7452.35 2451.9 7509.48 2478.44C7575.53 2509.15 7573.03 2590.51 7543.29 2597.25C7535.37 2599.04 7543.55 2585.95 7526.63 2567.87C7500.08 2539.54 7460.34 2560.44 7443.57 2585.42C7408.71 2637.37 7448.93 2731.1 7540.55 2709.5C7649.76 2683.76 7669.64 2532.64 7631.48 2434.28C7609.23 2376.95 7563.18 2316.7 7515.36 2274.68C7513.64 2323.14 7494.8 2370.61 7461.12 2400.85C7394 2461.09 7246.15 2466.18 7223.35 2340.3C7214.18 2289.71 7241.1 2269 7246.82 2275.15C7253.85 2282.7 7242.66 2329.51 7281.3 2340.37C7313.41 2349.38 7363.9 2333.37 7365.78 2281.32C7368.15 2215.72 7311.5 2179.28 7244.72 2164.71C7202.57 2155.51 7150.16 2152.5 7063.05 2166.73C6948.61 2185.45 6801.59 2228.94 6634.81 2289.71C6598.08 2241.51 6558.26 2193.71 6515.73 2150.39C6537.29 2142.21 6558.96 2134.12 6580.85 2126.21C6790.04 2050.47 7007.27 1986.31 7207.43 2003.41C7245.19 2006.64 7279.69 2012.16 7310.59 2020.18C7408.02 2035.38 7526.43 2100.47 7613.5 2178.91C7585.62 2110.94 7656.31 2065.12 7687.75 2032.5C7703.95 2015.67 7714.28 1995.07 7718.02 2001.09V2798.74C7607.39 2798.74 7517.7 2888.82 7517.7 3000.04V3000.05ZM7718.02 3119.48V2880.63C7652.4 2880.63 7599.21 2934.02 7599.2 3000.05C7599.23 3066.09 7652.4 3119.48 7718.02 3119.48V3119.48ZM6021.24 3453.57C6093.3 3471.25 6164.07 3493.02 6234.12 3516.97C6333.27 3345.83 6417.88 3169.03 6593.67 3091.5C6640.88 3070.67 6706.41 3061.22 6620.2 3046.94C6354.29 3002.89 6169.69 3230.1 6021.22 3453.57H6021.24ZM6651.18 3615.91C6496.78 3835.2 6310.05 4037.23 6046.48 3993.56C5953.44 3978.14 6024.17 3967.93 6075.12 3945.47C6250.28 3868.21 6342.16 3699.09 6439.06 3528.38C6507.44 3564.98 6575.71 3594.49 6651.18 3615.92V3615.91ZM6021.24 2546.53C6169.69 2770 6354.3 2997.24 6620.21 2953.16C6706.42 2938.88 6640.9 2929.42 6593.68 2908.61C6417.9 2831.08 6333.29 2654.27 6234.14 2483.14C6164.08 2507.08 6093.3 2528.86 6021.26 2546.53H6021.24ZM6651.18 2384.2C6575.71 2405.64 6507.44 2435.14 6439.06 2471.74C6342.16 2301.03 6250.28 2131.91 6075.12 2054.65C6024.16 2032.18 5953.42 2021.98 6046.48 2006.56C6310.05 1962.89 6496.78 2164.91 6651.18 2384.22V2384.2Z" fill="#EBB633"/>
</g>
</g>
<defs>
<clipPath id="clip0_4_5">
<rect width="6000" height="4000" fill="white"/>
</clipPath>
<clipPath id="clip1_4_5">
<rect width="9423.63" height="2000" fill="white" transform="translate(-1705.61)"/>
</clipPath>
<clipPath id="clip2_4_5">
<rect width="9423.63" height="2000" fill="white" transform="translate(-1705.57 2000)"/>
</clipPath>
</defs>
</svg>
