<svg width="6000" height="4000" viewBox="0 0 6000 4000" fill="none" xmlns="http://www.w3.org/2000/svg">
<g clip-path="url(#clip0_4_5)">
<rect width="6000" height="4000" fill="#110E45"/>
<g clip-path="url(#clip1_4_5)">
<path fill-rule="evenodd" clip-rule="evenodd" d="M1125.75 194.348C1278.09 160.472 1304.2 329.215 1216.37 349.746C1205.84 352.202 1195.81 351.963 1194.83 349.865C1193.22 346.426 1217.44 338.378 1213.56 306.8C1204.93 236.591 1072.68 269.179 1114.61 371.272C1121.84 388.867 1133.59 407.565 1147.36 422.371C1202.44 481.585 1350.31 482.86 1413.67 467.216C1497.83 446.434 1575.07 398.707 1667.71 337.436C1700.77 378.084 1736.46 416.834 1774.29 449.701C1702.58 496.166 1639.77 534.557 1583.63 557.517C1639.77 580.478 1702.58 618.869 1774.29 665.334C1736.46 698.201 1700.77 736.964 1667.71 777.599C1575.05 716.327 1497.83 668.601 1413.67 647.818C1350.31 632.175 1202.44 633.45 1147.36 692.663C1133.59 707.47 1121.84 726.168 1114.61 743.763C1072.68 845.843 1204.91 878.444 1213.56 808.235C1217.44 776.656 1193.22 768.622 1194.83 765.17C1195.81 763.085 1205.85 762.832 1216.37 765.289C1304.2 785.806 1278.09 954.549 1125.75 920.686C1097.58 914.418 1072.08 901.537 1051 881.512C1029.92 901.537 1004.42 914.418 976.251 920.686C823.91 954.562 797.804 785.819 885.626 765.289C896.161 762.832 906.194 763.071 907.172 765.17C908.785 768.609 884.556 776.656 888.442 808.235C897.073 878.444 1029.32 845.856 987.394 743.763C980.164 726.168 968.413 707.47 954.639 692.663C899.559 633.45 751.686 632.175 688.331 647.818C604.17 668.601 526.935 716.327 434.289 777.599C401.23 736.951 365.54 698.201 327.71 665.334C399.419 618.869 462.232 580.478 518.37 557.517C462.232 534.557 399.419 496.166 327.71 449.701C365.54 416.834 401.23 378.071 434.289 337.436C526.935 398.707 604.17 446.434 688.331 467.216C751.686 482.86 899.559 481.585 954.639 422.371C968.413 407.565 980.164 388.867 987.394 371.272C1029.32 269.192 897.087 236.591 888.442 306.8C884.556 338.378 908.785 346.412 907.172 349.865C906.194 351.95 896.148 352.202 885.626 349.746C797.804 329.229 823.91 160.486 976.251 194.348C1004.42 200.616 1029.92 213.498 1051 233.523C1072.08 213.498 1097.58 200.616 1125.75 194.348V194.348ZM1051 487.016C1012.24 487.016 980.824 518.582 980.824 557.517C980.824 596.453 1012.24 628.018 1051 628.018C1089.76 628.018 1121.18 596.453 1121.18 557.517C1121.18 518.582 1089.76 487.016 1051 487.016ZM-737.062 557.531C-737.062 649.784 -811.454 724.508 -903.229 724.508V1386.15C-900.122 1391.14 -891.557 1374.05 -878.114 1360.09C-852.034 1333.03 -793.398 1295.02 -816.53 1238.64C-744.292 1303.71 -646.08 1357.7 -565.264 1370.3C-539.634 1376.96 -511.016 1381.54 -479.689 1384.22C-313.654 1398.4 -133.463 1345.17 40.0537 1282.35C58.2024 1275.78 76.1924 1269.08 94.0768 1262.3C58.7972 1226.37 25.7648 1186.73 -4.70334 1146.73C-143.046 1197.14 -264.998 1233.22 -359.931 1248.74C-432.182 1260.55 -475.657 1258.04 -510.619 1250.42C-566.017 1238.33 -613.021 1208.11 -611.039 1153.69C-609.479 1110.52 -567.59 1097.24 -540.969 1104.71C-508.914 1113.72 -518.193 1152.55 -512.364 1158.81C-507.632 1163.91 -485.293 1146.73 -492.894 1104.77C-511.809 1000.36 -634.461 1004.59 -690.124 1054.56C-718.08 1079.64 -733.704 1119.02 -735.119 1159.21C-774.787 1124.35 -812.987 1074.37 -831.44 1026.83C-863.098 945.24 -846.601 819.881 -756.017 798.528C-680.025 780.614 -646.649 858.379 -675.57 901.458C-689.476 922.174 -722.442 939.517 -744.464 916.012C-758.502 901.033 -751.721 890.157 -758.29 891.644C-782.955 897.248 -785.031 964.735 -730.241 990.191C-682.854 1012.22 -625.024 987.456 -598.732 939.729C-505.663 1040.75 -395.7 1072.8 -250.709 1068.35C-178.458 1066.14 -93.7019 1054.33 -14.8417 1030.46C69.3851 1004.96 145.932 965.877 241.13 905.508C214.799 860.025 187.689 816.269 153.797 775.714C53.2852 835.445 -49.6719 882.388 -146.615 908.164C-254.423 936.834 -355.847 938.561 -445.929 896.61C-408.72 888.019 -381.821 866.904 -373.744 830.651C-368.417 806.735 -372.581 779.79 -379.005 763.417C-389.685 736.14 -419.955 726.845 -422.758 733.511C-425.533 740.138 -408.548 786.802 -448.732 807.08C-485.663 825.711 -547.181 809.722 -555.059 752.395C-558.615 726.5 -550.169 694.642 -532.588 674.577C-515.008 654.511 -488.294 646.251 -456.332 644.578C-320.713 637.487 -224.589 755.608 -147.619 871.738C-86.9871 854.913 -25.575 830.053 31.8055 801.914C-2.98498 758.185 -37.4979 721.679 -68.4683 690.884C-134.612 625.124 -184.855 586.161 -267.654 557.517C-184.855 528.873 -134.612 489.911 -68.4683 424.151C-37.4979 393.356 -2.98498 356.85 31.8055 313.121C-25.5618 284.981 -86.9871 260.122 -147.619 243.297C-224.589 359.426 -320.713 477.548 -456.332 470.457C-488.307 468.783 -515.008 460.524 -532.588 440.458C-550.169 420.393 -558.615 388.522 -555.059 362.64C-547.181 305.312 -485.663 289.31 -448.732 307.955C-408.548 328.233 -425.533 374.897 -422.758 381.524C-419.955 388.19 -389.699 378.894 -379.005 351.618C-372.594 335.244 -368.43 308.313 -373.744 284.384C-381.807 248.117 -408.72 227.016 -445.929 218.424C-355.86 176.474 -254.423 178.201 -146.615 206.871C-49.6719 232.647 53.2852 279.59 153.797 339.321C187.689 298.752 214.812 255.009 241.13 209.527C145.919 149.158 69.3851 110.076 -14.8417 84.5798C-93.7019 60.7164 -178.458 48.8976 -250.709 46.6932C-395.7 42.2446 -505.663 74.3014 -598.732 175.319C-625.024 127.605 -682.854 102.839 -730.241 124.857C-785.018 150.327 -782.955 217.813 -758.29 223.404C-751.721 224.891 -758.502 214.029 -744.464 199.036C-722.442 175.531 -689.476 192.874 -675.57 213.591C-646.649 256.683 -680.012 334.434 -756.017 316.52C-846.601 295.167 -863.098 169.808 -831.44 88.2183C-812.987 40.6643 -774.787 -9.30661 -735.119 -44.1654C-733.691 -3.96823 -718.067 35.4056 -690.124 60.4907C-634.448 110.462 -511.809 114.684 -492.894 10.2674C-485.293 -31.6959 -507.619 -48.8797 -512.364 -43.7803C-518.193 -37.5124 -508.914 1.31703 -540.969 10.3206C-567.603 17.7969 -609.479 4.51739 -611.039 -38.6544C-613.008 -93.074 -566.017 -123.298 -510.619 -135.383C-475.657 -143.018 -432.182 -145.515 -359.931 -133.709C-264.998 -118.186 -143.046 -82.1051 -4.70334 -31.6959C25.7648 -71.6806 58.7972 -111.333 94.0768 -147.268C76.2057 -154.054 58.2156 -160.76 40.0537 -167.32C-133.463 -230.119 -313.641 -283.357 -479.689 -269.174C-511.016 -266.492 -539.634 -261.91 -565.264 -255.257C-646.08 -242.655 -744.305 -188.66 -816.53 -123.59C-793.398 -179.975 -852.034 -217.968 -878.114 -245.032C-891.557 -258.989 -900.122 -276.079 -903.229 -271.086V390.54C-811.454 390.54 -737.062 465.264 -737.062 557.517V557.531ZM-903.229 656.583V458.452C-848.796 458.452 -804.686 502.739 -804.66 557.517C-804.686 612.295 -848.796 656.583 -903.229 656.583ZM992.417 1023.16C820.156 849.495 456.667 975.132 233.463 1057.61C257.864 1099.54 282.887 1139.51 313.236 1177.7C420.053 1138.13 537.801 1101.62 623.006 1082.82C707.894 1064.09 781.956 1060.56 844.478 1070.21C804.043 1107.06 802.457 1166.82 833.652 1191.2C841.464 1197.31 850.466 1200.01 853.255 1196.05C858.146 1189.12 841.332 1150.01 873.4 1130.93C889.169 1121.55 916.478 1118.1 936.16 1127.28C975.498 1145.6 985.094 1215.27 953.476 1249.55C937.297 1267.11 910.067 1276.22 879.202 1278.5C779.166 1285.9 695.138 1213.89 626.099 1118.41C568.547 1131.31 510.28 1148.13 453.217 1166.58C507.756 1229.63 577.561 1299.84 644.578 1334.81C733.22 1381.06 887.504 1412.57 979.278 1357.61C1009.63 1339.43 1034.52 1311.45 1050.99 1280.14C1067.47 1311.45 1092.35 1339.43 1122.7 1357.61C1214.47 1412.59 1368.77 1381.06 1457.4 1334.81C1524.4 1299.84 1594.21 1229.62 1648.76 1166.58C1591.69 1148.13 1533.43 1131.31 1475.88 1118.41C1406.84 1213.89 1322.81 1285.89 1222.77 1278.5C1191.91 1276.22 1164.68 1267.11 1148.5 1249.55C1116.88 1215.27 1126.48 1145.6 1165.81 1127.28C1185.5 1118.1 1212.81 1121.55 1228.57 1130.93C1260.64 1150.01 1243.82 1189.12 1248.72 1196.05C1251.51 1199.99 1260.51 1197.3 1268.32 1191.2C1299.52 1166.82 1297.93 1107.05 1257.5 1070.21C1320.02 1060.55 1394.08 1064.09 1478.97 1082.82C1564.19 1101.62 1681.92 1138.11 1788.74 1177.7C1819.09 1139.51 1844.11 1099.54 1868.51 1057.61C1645.31 975.132 1281.83 849.508 1109.56 1023.16C1085.3 1047.61 1065.16 1072.63 1050.97 1099.46C1036.8 1072.63 1016.65 1047.61 992.39 1023.16H992.417ZM504.24 933.714C381.098 748.344 227.965 559.855 7.39132 596.413C-64.1063 608.258 -9.76596 616.107 29.3998 633.37C175.211 697.683 245.4 844.342 327.644 986.301C385.751 966.434 444.467 948.374 504.227 933.714H504.24ZM-18.2918 1068.37C44.31 1050.59 100.937 1026.11 157.657 995.756C238.037 1137.36 314.253 1277.64 459.549 1341.73C501.821 1360.37 560.497 1368.83 483.302 1381.62C264.672 1417.85 109.78 1250.27 -18.2918 1068.35V1068.37ZM992.417 91.8835C1016.67 67.4359 1036.82 42.4172 1051 15.5925C1065.17 42.4172 1085.33 67.4359 1109.58 91.8835C1281.84 265.553 1645.33 139.916 1868.54 57.4364C1844.14 15.5129 1819.11 -24.4586 1788.76 -62.6505C1681.95 -23.0775 1564.2 13.428 1478.99 32.2318C1394.11 50.956 1320.04 54.4883 1257.52 44.8341C1297.96 7.98337 1299.54 -51.7746 1268.35 -76.1558C1260.54 -82.2644 1251.53 -84.9602 1248.75 -81.0029C1243.85 -74.0709 1260.67 -34.9627 1228.6 -15.88C1212.83 -6.50462 1185.52 -3.05194 1165.84 -12.2281C1126.5 -30.5539 1116.91 -100.218 1148.52 -134.506C1164.7 -152.062 1191.93 -161.171 1222.8 -163.456C1322.83 -170.852 1406.86 -98.8373 1475.9 -3.35738C1533.45 -16.2651 1591.72 -33.077 1648.78 -51.5356C1594.24 -114.587 1524.44 -184.796 1457.42 -219.761C1368.79 -266.013 1214.5 -297.526 1122.72 -242.562C1092.37 -224.382 1067.48 -196.402 1051.01 -165.089C1034.53 -196.402 1009.65 -224.382 979.304 -242.562C887.53 -297.539 733.233 -266.013 644.605 -219.761C577.601 -184.796 507.795 -114.574 453.244 -51.5356C510.307 -33.077 568.573 -16.2651 626.125 -3.35738C695.164 -98.8373 779.193 -170.839 879.229 -163.456C910.093 -161.171 937.323 -152.062 953.502 -134.506C985.12 -100.218 975.524 -30.5539 936.186 -12.2281C916.504 -3.05194 889.195 -6.50462 873.426 -15.88C841.358 -34.9627 858.185 -74.0709 853.281 -81.0029C850.492 -84.9469 841.491 -82.2511 833.679 -76.1558C802.484 -51.7746 804.07 7.99665 844.504 44.8341C781.982 54.5016 707.92 50.956 623.032 32.2318C537.827 13.428 420.079 -23.0642 313.262 -62.6505C282.913 -24.4586 257.891 15.5129 233.49 57.4364C456.694 139.916 820.17 265.54 992.443 91.8835H992.417ZM504.24 181.334C444.467 166.674 385.764 148.627 327.657 128.748C245.413 270.706 175.224 417.365 29.413 481.678C-9.75273 498.955 -64.0931 506.789 7.40456 518.635C227.978 555.18 381.098 366.704 504.253 181.334H504.24ZM-18.2918 46.68C109.793 -135.237 264.685 -302.811 483.315 -266.584C560.497 -253.796 501.821 -245.324 459.562 -226.693C314.267 -162.606 238.05 -22.3206 157.67 119.279C100.95 88.9222 44.3232 64.448 -18.2785 46.6667L-18.2918 46.68ZM2839.04 557.531C2839.04 649.784 2913.43 724.508 3005.2 724.508V1386.15C3002.1 1391.14 2993.53 1374.05 2980.09 1360.09C2954.01 1333.03 2895.37 1295.02 2918.5 1238.64C2846.28 1303.71 2748.05 1357.7 2667.24 1370.3C2641.61 1376.96 2612.99 1381.54 2581.66 1384.22C2415.63 1398.4 2235.44 1345.17 2061.92 1282.35C2043.77 1275.78 2025.78 1269.08 2007.9 1262.3C2043.18 1226.37 2076.21 1186.73 2106.68 1146.73C2245.02 1197.14 2366.97 1233.22 2461.91 1248.74C2534.16 1260.55 2577.63 1258.04 2612.59 1250.42C2667.99 1238.33 2715 1208.11 2713.01 1153.69C2711.45 1110.52 2669.56 1097.24 2642.94 1104.71C2610.89 1113.72 2620.17 1152.55 2614.34 1158.81C2609.61 1163.91 2587.27 1146.73 2594.87 1104.77C2613.78 1000.36 2736.44 1004.59 2792.1 1054.56C2820.05 1079.64 2835.68 1119.02 2837.09 1159.21C2876.76 1124.35 2914.96 1074.37 2933.41 1026.83C2965.07 945.24 2948.58 819.881 2857.99 798.528C2782 780.614 2748.62 858.379 2777.54 901.458C2791.45 922.174 2824.42 939.517 2846.44 916.012C2860.48 901.033 2853.69 890.157 2860.26 891.644C2884.93 897.248 2887 964.735 2832.22 990.191C2784.83 1012.22 2727 987.456 2700.71 939.729C2607.65 1040.75 2497.67 1072.8 2352.68 1068.35C2280.43 1066.14 2195.68 1054.33 2116.82 1030.46C2032.59 1004.96 1956.04 965.877 1860.84 905.508C1887.17 860.025 1914.29 816.269 1948.18 775.714C2048.69 835.445 2151.65 882.388 2248.59 908.164C2356.4 936.834 2457.82 938.561 2547.9 896.61C2510.69 888.019 2483.79 866.904 2475.72 830.651C2470.39 806.735 2474.56 779.79 2480.98 763.417C2491.66 736.14 2521.93 726.845 2524.73 733.511C2527.51 740.138 2510.52 786.802 2550.71 807.08C2587.64 825.711 2649.16 809.722 2657.03 752.395C2660.59 726.5 2652.14 694.642 2634.56 674.577C2616.98 654.511 2590.27 646.251 2558.31 644.578C2422.69 637.487 2326.56 755.608 2249.59 871.738C2188.96 854.913 2127.55 830.053 2070.17 801.914C2104.96 758.185 2139.47 721.679 2170.44 690.884C2236.59 625.124 2286.83 586.161 2369.63 557.517C2286.83 528.873 2236.59 489.911 2170.44 424.151C2139.47 393.356 2104.95 356.85 2070.17 313.121C2127.54 284.981 2188.96 260.122 2249.59 243.297C2326.56 359.426 2422.69 477.548 2558.31 470.457C2590.28 468.783 2616.98 460.524 2634.56 440.458C2652.14 420.393 2660.59 388.522 2657.03 362.64C2649.16 305.312 2587.64 289.31 2550.71 307.955C2510.52 328.233 2527.51 374.897 2524.73 381.524C2521.93 388.19 2491.67 378.894 2480.98 351.618C2474.57 335.244 2470.4 308.313 2475.72 284.384C2483.78 248.117 2510.69 227.016 2547.9 218.424C2457.83 176.474 2356.4 178.201 2248.59 206.871C2151.65 232.647 2048.69 279.59 1948.18 339.321C1914.29 298.752 1887.16 255.009 1860.84 209.527C1956.06 149.158 2032.59 110.076 2116.82 84.5798C2195.69 60.7164 2280.43 48.8976 2352.68 46.6932C2497.67 42.2446 2607.64 74.3014 2700.71 175.319C2727 127.605 2784.83 102.839 2832.22 124.857C2887 150.327 2884.93 217.813 2860.26 223.404C2853.69 224.891 2860.48 214.029 2846.44 199.036C2824.42 175.531 2791.45 192.874 2777.54 213.591C2748.62 256.683 2781.99 334.434 2857.99 316.52C2948.58 295.167 2965.07 169.808 2933.41 88.2183C2914.96 40.6643 2876.76 -9.30661 2837.09 -44.1654C2835.66 -3.96823 2820.04 35.4056 2792.1 60.4907C2736.42 110.462 2613.78 114.684 2594.87 10.2674C2587.27 -31.6959 2609.59 -48.8797 2614.34 -43.7803C2620.17 -37.5124 2610.89 1.31703 2642.94 10.3206C2669.58 17.7969 2711.45 4.51739 2713.01 -38.6544C2714.98 -93.074 2667.99 -123.298 2612.59 -135.383C2577.63 -143.018 2534.16 -145.515 2461.91 -133.709C2366.97 -118.186 2245.02 -82.1051 2106.68 -31.6959C2076.21 -71.6806 2043.18 -111.333 2007.9 -147.268C2025.78 -154.054 2043.76 -160.76 2061.92 -167.32C2235.44 -230.145 2415.63 -283.37 2581.66 -269.187C2612.99 -266.505 2641.61 -261.923 2667.24 -255.27C2748.05 -242.668 2846.28 -188.673 2918.5 -123.604C2895.37 -179.989 2954.01 -217.995 2980.09 -245.058C2993.53 -259.015 3002.1 -276.106 3005.2 -271.113V390.54C2913.43 390.54 2839.04 465.264 2839.04 557.517V557.531ZM3005.2 656.596V458.465C2950.77 458.465 2906.65 502.753 2906.63 557.531C2906.66 612.309 2950.77 656.596 3005.2 656.596ZM1597.72 933.727C1657.49 948.387 1716.2 966.448 1774.3 986.314C1856.55 844.355 1926.74 697.696 2072.55 633.383C2111.71 616.107 2166.07 608.272 2094.56 596.426C1873.98 559.881 1720.86 748.358 1597.71 933.727H1597.72ZM2120.25 1068.38C1992.18 1250.28 1837.29 1417.87 1618.66 1381.65C1541.48 1368.86 1600.15 1360.39 1642.41 1341.75C1787.71 1277.67 1863.92 1137.38 1944.3 995.782C2001.02 1026.14 2057.65 1050.61 2120.25 1068.39V1068.38ZM1597.72 181.334C1720.86 366.704 1874 555.193 2094.57 518.635C2166.07 506.789 2111.73 498.941 2072.56 481.678C1926.75 417.365 1856.56 270.706 1774.32 128.748C1716.21 148.614 1657.49 166.674 1597.73 181.334H1597.72ZM2120.25 46.68C2057.65 64.4613 2001.02 88.9355 1944.3 119.293C1863.92 -22.3073 1787.71 -162.592 1642.41 -226.679C1600.14 -245.324 1541.46 -253.783 1618.66 -266.571C1837.29 -302.798 1992.18 -135.223 2120.25 46.6932V46.68Z" fill="#EBB633"/>
<path fill-rule="evenodd" clip-rule="evenodd" d="M5034.21 194.362C5186.55 160.486 5212.65 329.229 5124.83 349.759C5114.3 352.216 5104.26 351.977 5103.28 349.878C5101.67 346.439 5125.9 338.392 5122.02 306.813C5113.38 236.604 4981.13 269.192 5023.06 371.285C5030.29 388.88 5042.04 407.578 5055.82 422.385C5110.9 481.598 5258.77 482.873 5322.13 467.23C5406.29 446.447 5483.52 398.721 5576.17 337.449C5609.23 378.097 5644.92 416.847 5682.75 449.714C5611.04 496.179 5548.23 534.57 5492.09 557.531C5548.23 580.491 5611.04 618.882 5682.75 665.347C5644.92 698.214 5609.23 736.977 5576.17 777.612C5483.51 716.341 5406.29 668.614 5322.13 647.831C5258.77 632.188 5110.9 633.463 5055.82 692.676C5042.04 707.483 5030.29 726.181 5023.06 743.776C4981.13 845.856 5113.37 878.457 5122.02 808.248C5125.9 776.67 5101.67 768.635 5103.28 765.183C5104.26 763.098 5114.31 762.846 5124.83 765.302C5212.65 785.819 5186.55 954.562 5034.21 920.699C5006.04 914.432 4980.54 901.55 4959.46 881.525C4938.37 901.55 4912.88 914.432 4884.71 920.699C4732.37 954.576 4706.26 785.832 4794.08 765.302C4804.62 762.846 4814.65 763.085 4815.63 765.183C4817.24 768.622 4793.01 776.67 4796.9 808.248C4805.53 878.457 4937.78 845.869 4895.85 743.776C4888.62 726.181 4876.87 707.483 4863.1 692.676C4808.02 633.463 4660.14 632.188 4596.79 647.831C4512.63 668.614 4435.39 716.341 4342.75 777.612C4309.69 736.964 4274 698.214 4236.17 665.347C4307.88 618.882 4370.69 580.491 4426.83 557.531C4370.68 534.57 4307.88 496.179 4236.17 449.714C4274 416.847 4309.69 378.084 4342.75 337.449C4435.39 398.721 4512.63 446.447 4596.79 467.23C4660.14 482.873 4808.02 481.598 4863.1 422.385C4876.87 407.578 4888.62 388.88 4895.85 371.285C4937.78 269.205 4805.54 236.604 4796.9 306.813C4793.01 338.392 4817.24 346.426 4815.63 349.878C4814.65 351.963 4804.6 352.216 4794.08 349.759C4706.26 329.242 4732.37 160.499 4884.71 194.362C4912.88 200.63 4938.37 213.511 4959.46 233.536C4980.54 213.511 5006.04 200.63 5034.21 194.362V194.362ZM4959.46 487.029C4920.7 487.029 4889.28 518.595 4889.28 557.531C4889.28 596.466 4920.7 628.032 4959.46 628.032C4998.21 628.032 5029.63 596.466 5029.63 557.531C5029.63 518.595 4998.21 487.029 4959.46 487.029ZM3171.4 557.531C3171.4 649.784 3097 724.508 3005.23 724.508V1386.15C3008.33 1391.14 3016.9 1374.05 3030.34 1360.09C3056.42 1333.03 3115.06 1295.02 3091.93 1238.64C3164.16 1303.71 3262.38 1357.7 3343.19 1370.3C3368.82 1376.96 3397.44 1381.54 3428.77 1384.22C3594.8 1398.4 3774.99 1345.17 3948.51 1282.35C3966.66 1275.78 3984.65 1269.07 4002.53 1262.3C3967.25 1226.37 3934.22 1186.73 3903.75 1146.73C3765.41 1197.14 3643.46 1233.22 3548.53 1248.74C3476.27 1260.55 3432.8 1258.04 3397.84 1250.42C3342.44 1238.33 3295.44 1208.11 3297.42 1153.69C3298.98 1110.52 3340.87 1097.24 3367.49 1104.71C3399.54 1113.72 3390.26 1152.55 3396.09 1158.82C3400.82 1163.91 3423.16 1146.73 3415.56 1104.77C3396.65 1000.36 3274 1004.59 3218.33 1054.56C3190.38 1079.64 3174.75 1119.02 3173.34 1159.21C3133.67 1124.35 3095.47 1074.37 3077.02 1026.83C3045.36 945.24 3061.86 819.881 3152.44 798.528C3228.43 780.614 3261.81 858.379 3232.89 901.457C3218.98 922.174 3186.01 939.517 3163.99 916.012C3149.95 901.033 3156.74 890.157 3150.17 891.644C3125.5 897.248 3123.43 964.734 3178.22 990.191C3225.6 1012.22 3283.43 987.456 3309.72 939.729C3402.79 1040.75 3512.76 1072.8 3657.75 1068.35C3730 1066.14 3814.75 1054.33 3893.61 1030.45C3977.84 1004.96 4054.39 965.876 4149.59 905.508C4123.26 860.025 4096.15 816.269 4062.25 775.713C3961.74 835.445 3858.78 882.388 3761.84 908.164C3654.03 936.834 3552.61 938.56 3462.53 896.61C3499.74 888.019 3526.64 866.904 3534.71 830.651C3540.04 806.734 3535.88 779.79 3529.45 763.417C3518.77 736.14 3488.5 726.845 3485.7 733.511C3482.92 740.138 3499.91 786.802 3459.73 807.08C3422.79 825.711 3361.28 809.722 3353.4 752.395C3349.84 726.499 3358.29 694.642 3375.87 674.576C3393.45 654.511 3420.16 646.251 3452.12 644.578C3587.74 637.487 3683.87 755.608 3760.84 871.738C3821.47 854.913 3882.88 830.053 3940.26 801.914C3905.47 758.184 3870.96 721.679 3839.99 690.884C3773.84 625.123 3723.6 586.161 3640.8 557.517C3723.6 528.873 3773.84 489.911 3839.99 424.151C3870.96 393.356 3905.47 356.85 3940.26 313.121C3882.89 284.981 3821.47 260.122 3760.84 243.297C3683.87 359.426 3587.74 477.548 3452.12 470.457C3420.15 468.783 3393.45 460.523 3375.87 440.458C3358.29 420.393 3349.84 388.522 3353.4 362.64C3361.28 305.312 3422.79 289.31 3459.73 307.955C3499.91 328.233 3482.92 374.897 3485.7 381.524C3488.5 388.19 3518.76 378.894 3529.45 351.618C3535.86 335.244 3540.03 308.313 3534.71 284.384C3526.65 248.117 3499.74 227.016 3462.53 218.424C3552.6 176.474 3654.03 178.2 3761.84 206.871C3858.78 232.647 3961.74 279.59 4062.25 339.321C4096.15 298.752 4123.27 255.009 4149.59 209.527C4054.38 149.158 3977.84 110.076 3893.61 84.5797C3814.75 60.7164 3730 48.8976 3657.75 46.6932C3512.76 42.2446 3402.79 74.3014 3309.72 175.319C3283.43 127.605 3225.6 102.839 3178.22 124.857C3123.44 150.327 3125.5 217.813 3150.17 223.404C3156.74 224.891 3149.95 214.029 3163.99 199.036C3186.01 175.531 3218.98 192.874 3232.89 213.591C3261.81 256.683 3228.45 334.434 3152.44 316.52C3061.86 295.167 3045.36 169.808 3077.02 88.2183C3095.47 40.6643 3133.67 -9.30665 3173.34 -44.1654C3174.77 -3.96827 3190.39 35.4056 3218.33 60.4906C3274.01 110.462 3396.65 114.684 3415.56 10.2674C3423.16 -31.6959 3400.84 -48.8797 3396.09 -43.7803C3390.26 -37.5124 3399.54 1.317 3367.49 10.3205C3340.85 17.7969 3298.98 4.51736 3297.42 -38.6544C3295.45 -93.074 3342.44 -123.298 3397.84 -135.383C3432.8 -143.018 3476.27 -145.515 3548.53 -133.709C3643.46 -118.186 3765.41 -82.1051 3903.75 -31.696C3934.22 -71.6807 3967.25 -111.333 4002.53 -147.268C3984.66 -154.054 3966.67 -160.76 3948.51 -167.32C3774.99 -230.145 3594.8 -283.37 3428.77 -269.187C3397.44 -266.505 3368.82 -261.923 3343.19 -255.27C3262.38 -242.668 3164.15 -188.673 3091.93 -123.604C3115.06 -179.989 3056.42 -217.995 3030.34 -245.058C3016.9 -259.015 3008.33 -276.106 3005.23 -271.113V390.554C3097 390.554 3171.4 465.278 3171.4 557.531V557.531ZM3005.23 656.596V458.465C3059.66 458.465 3103.77 502.752 3103.8 557.531C3103.77 612.309 3059.66 656.596 3005.23 656.596ZM4900.87 1023.18C4728.61 849.508 4365.12 975.146 4141.92 1057.62C4166.32 1099.55 4191.34 1139.52 4221.69 1177.71C4328.51 1138.14 4446.26 1101.63 4531.46 1082.83C4616.35 1064.11 4690.41 1060.57 4752.93 1070.23C4712.5 1107.08 4710.91 1166.84 4742.11 1191.22C4749.92 1197.33 4758.92 1200.02 4761.71 1196.06C4766.6 1189.13 4749.79 1150.02 4781.86 1130.94C4797.63 1121.57 4824.93 1118.11 4844.62 1127.29C4883.95 1145.62 4893.55 1215.28 4861.93 1249.57C4845.75 1267.12 4818.52 1276.23 4787.66 1278.52C4687.62 1285.91 4603.59 1213.9 4534.56 1118.42C4477 1131.33 4418.74 1148.14 4361.67 1166.6C4416.21 1229.65 4486.02 1299.86 4553.03 1334.82C4641.68 1381.07 4795.96 1412.59 4887.73 1357.62C4918.08 1339.44 4942.97 1311.46 4959.44 1280.15C4975.93 1311.46 5000.8 1339.44 5031.15 1357.62C5122.93 1412.6 5277.22 1381.07 5365.85 1334.82C5432.86 1299.86 5502.66 1229.63 5557.21 1166.6C5500.15 1148.14 5441.88 1131.33 5384.33 1118.42C5315.29 1213.9 5231.26 1285.9 5131.23 1278.52C5100.36 1276.23 5073.13 1267.12 5056.95 1249.57C5025.34 1215.28 5034.93 1145.62 5074.27 1127.29C5093.95 1118.11 5121.26 1121.57 5137.03 1130.94C5169.1 1150.02 5152.27 1189.13 5157.18 1196.06C5159.96 1200.01 5168.97 1197.31 5176.78 1191.22C5207.97 1166.84 5206.39 1107.06 5165.95 1070.23C5228.47 1060.56 5302.54 1064.11 5387.42 1082.83C5472.64 1101.63 5590.38 1138.13 5697.19 1177.71C5727.54 1139.52 5752.57 1099.55 5776.97 1057.62C5553.76 975.146 5190.29 849.521 5018.01 1023.18C4993.76 1047.63 4973.61 1072.64 4959.43 1099.47C4945.26 1072.64 4925.1 1047.63 4900.85 1023.18H4900.87ZM4412.7 933.727C4289.55 748.358 4136.42 559.868 3915.85 596.426C3844.35 608.272 3898.69 616.12 3937.86 633.383C4083.67 697.696 4153.86 844.355 4236.1 986.314C4294.21 966.448 4352.92 948.387 4412.68 933.727H4412.7ZM3890.16 1068.38C3952.77 1050.6 4009.39 1026.13 4066.11 995.769C4146.49 1137.37 4222.71 1277.65 4368.01 1341.74C4410.28 1360.39 4468.95 1368.84 4391.76 1381.63C4173.13 1417.86 4018.24 1250.28 3890.16 1068.37V1068.38ZM4900.86 91.8968C4925.12 67.4491 4945.26 42.4305 4959.44 15.6058C4973.61 42.4305 4993.77 67.4491 5018.03 91.8968C5190.29 265.567 5553.78 139.929 5776.98 57.4496C5752.58 15.5261 5727.56 -24.4453 5697.21 -62.6373C5590.39 -23.0642 5472.64 13.4412 5387.44 32.245C5302.55 50.9692 5228.49 54.5016 5165.97 44.8473C5206.4 7.99661 5207.99 -51.7613 5176.79 -76.1426C5168.98 -82.2512 5159.98 -84.9469 5157.19 -80.9896C5152.3 -74.0577 5169.11 -34.9494 5137.04 -15.8667C5121.27 -6.49137 5093.97 -3.03869 5074.28 -12.2149C5034.95 -30.5406 5025.35 -100.205 5056.97 -134.493C5073.15 -152.048 5100.38 -161.158 5131.24 -163.442C5231.28 -170.839 5315.31 -98.824 5384.34 -3.34413C5441.9 -16.2518 5500.16 -33.0637 5557.23 -51.5223C5502.69 -114.574 5432.88 -184.783 5365.87 -219.748C5277.24 -266 5122.94 -297.513 5031.17 -242.549C5000.82 -224.369 4975.93 -196.389 4959.46 -165.076C4942.97 -196.389 4918.1 -224.369 4887.75 -242.549C4795.97 -297.526 4641.68 -266 4553.05 -219.748C4486.04 -184.783 4416.24 -114.56 4361.69 -51.5223C4418.75 -33.0637 4477.02 -16.2518 4534.57 -3.34413C4603.61 -98.824 4687.64 -170.826 4787.67 -163.442C4818.54 -161.158 4845.77 -152.048 4861.95 -134.493C4893.56 -100.205 4883.97 -30.5406 4844.63 -12.2149C4824.95 -3.03869 4797.64 -6.49137 4781.87 -15.8667C4749.8 -34.9494 4766.63 -74.0577 4761.72 -80.9896C4758.94 -84.9336 4749.93 -82.2379 4742.12 -76.1426C4710.93 -51.7613 4712.51 8.00989 4752.95 44.8473C4690.43 54.5148 4616.36 50.9692 4531.48 32.245C4446.27 13.4412 4328.52 -23.051 4221.71 -62.6373C4191.36 -24.4453 4166.33 15.5261 4141.93 57.4496C4365.14 139.929 4728.61 265.553 4900.89 91.8968H4900.86ZM4412.68 181.348C4352.91 166.687 4294.21 148.64 4236.1 128.761C4153.86 270.719 4083.67 417.378 3937.86 481.691C3898.69 498.968 3844.35 506.803 3915.85 518.648C4136.42 555.193 4289.54 366.717 4412.7 181.348H4412.68ZM3890.15 46.6932C4018.22 -135.21 4173.12 -302.798 4391.75 -266.571C4468.93 -253.783 4410.25 -245.311 4367.99 -226.679C4222.7 -162.592 4146.48 -22.3073 4066.1 119.292C4009.38 88.9354 3952.75 64.4612 3890.15 46.6799V46.6932ZM6747.48 557.544C6747.48 649.797 6821.87 724.521 6913.65 724.521V1386.16C6910.54 1391.15 6901.97 1374.06 6888.53 1360.11C6862.45 1333.04 6803.82 1295.04 6826.95 1238.65C6754.72 1303.72 6656.5 1357.72 6575.68 1370.32C6550.05 1376.97 6521.43 1381.55 6490.11 1384.24C6324.07 1398.42 6143.88 1345.18 5970.36 1282.37C5952.21 1275.79 5934.23 1269.09 5916.34 1262.32C5951.62 1226.38 5984.65 1186.74 6015.12 1146.74C6153.46 1197.15 6275.41 1233.23 6370.35 1248.76C6442.6 1260.56 6486.07 1258.05 6521.04 1250.43C6576.43 1238.35 6623.44 1208.12 6621.46 1153.7C6619.9 1110.53 6578.01 1097.25 6551.39 1104.73C6519.33 1113.73 6528.61 1152.56 6522.78 1158.83C6518.05 1163.93 6495.71 1146.74 6503.31 1104.78C6522.23 1000.38 6644.88 1004.6 6700.54 1054.57C6728.5 1079.66 6744.12 1119.03 6745.54 1159.23C6785.2 1124.37 6823.4 1074.38 6841.86 1026.84C6873.51 945.253 6857.02 819.894 6766.43 798.541C6690.44 780.627 6657.07 858.392 6685.99 901.471C6699.89 922.187 6732.86 939.53 6754.88 916.025C6768.92 901.046 6762.14 890.17 6768.71 891.657C6793.37 897.261 6795.45 964.748 6740.66 990.205C6693.27 1012.24 6635.44 987.469 6609.15 939.742C6516.09 1040.76 6406.12 1072.82 6261.13 1068.37C6188.87 1066.15 6104.12 1054.34 6025.26 1030.47C5941.03 1004.97 5864.49 965.89 5769.29 905.521C5795.62 860.039 5822.73 816.282 5856.62 775.727C5957.13 835.458 6060.09 882.401 6157.03 908.177C6264.84 936.847 6366.26 938.574 6456.35 896.624C6419.14 888.032 6392.24 866.917 6384.16 830.664C6378.83 806.748 6383 779.804 6389.42 763.43C6400.1 736.154 6430.37 726.858 6433.18 733.524C6435.95 740.151 6418.97 786.815 6459.15 807.093C6496.08 825.724 6557.6 809.736 6565.48 752.408C6569.03 726.513 6560.59 694.655 6543.01 674.59C6525.43 654.524 6498.71 646.264 6466.75 644.591C6331.13 637.5 6235.01 755.622 6158.04 871.751C6097.4 854.926 6035.99 830.067 5978.61 801.927C6013.4 758.198 6047.92 721.692 6078.89 690.897C6145.03 625.137 6195.27 586.175 6278.07 557.531C6195.27 528.887 6145.03 489.924 6078.89 424.164C6047.92 393.369 6013.39 356.863 5978.61 313.134C6035.98 284.995 6097.4 260.135 6158.04 243.31C6235.01 359.44 6331.13 477.561 6466.75 470.47C6498.72 468.797 6525.43 460.537 6543.01 440.471C6560.59 420.406 6569.03 388.535 6565.48 362.653C6557.6 305.326 6496.08 289.324 6459.15 307.968C6418.97 328.246 6435.95 374.91 6433.18 381.537C6430.37 388.203 6400.12 378.907 6389.42 351.631C6383.01 335.258 6378.85 308.327 6384.16 284.397C6392.22 248.131 6419.14 227.029 6456.35 218.438C6366.28 176.487 6264.84 178.214 6157.03 206.884C6060.09 232.66 5957.13 279.603 5856.62 339.334C5822.73 298.765 5795.61 255.023 5769.29 209.54C5864.5 149.171 5941.03 110.09 6025.26 84.593C6104.13 60.7297 6188.87 48.9109 6261.13 46.7065C6406.12 42.2578 6516.08 74.3146 6609.15 175.332C6635.44 127.619 6693.27 102.852 6740.66 124.87C6795.45 150.34 6793.37 217.827 6768.71 223.417C6762.14 224.905 6768.92 214.042 6754.88 199.049C6732.86 175.545 6699.89 192.888 6685.99 213.604C6657.07 256.696 6690.43 334.448 6766.43 316.534C6857.02 295.18 6873.51 169.821 6841.86 88.2316C6823.4 40.6776 6785.2 -9.29336 6745.54 -44.1522C6744.11 -3.95498 6728.48 35.4189 6700.54 60.5039C6644.87 110.475 6522.23 114.698 6503.31 10.2807C6495.71 -31.6827 6518.04 -48.8664 6522.78 -43.7671C6528.61 -37.4991 6519.33 1.33028 6551.39 10.3338C6578.02 17.8102 6619.9 4.53064 6621.46 -38.6412C6623.43 -93.0607 6576.43 -123.285 6521.04 -135.369C6486.07 -143.005 6442.6 -145.502 6370.35 -133.696C6275.41 -118.172 6153.46 -82.0918 6015.12 -31.6827C5984.65 -71.6674 5951.62 -111.32 5916.34 -147.255C5934.23 -154.04 5952.2 -160.747 5970.36 -167.307C6143.88 -230.132 6324.07 -283.357 6490.11 -269.174C6521.43 -266.492 6550.05 -261.91 6575.68 -255.257C6656.5 -242.655 6754.72 -188.66 6826.95 -123.59C6803.82 -179.975 6862.45 -217.981 6888.53 -245.045C6901.97 -259.002 6910.54 -276.093 6913.65 -271.1V390.554C6821.87 390.554 6747.48 465.278 6747.48 557.531V557.544ZM6913.65 656.609V458.478C6859.21 458.478 6815.09 502.766 6815.08 557.544C6815.1 612.322 6859.21 656.609 6913.65 656.609V656.609ZM5506.16 933.74C5565.94 948.401 5624.64 966.461 5682.75 986.327C5764.99 844.369 5835.18 697.709 5980.99 633.397C6020.16 616.12 6074.51 608.285 6003 596.44C5782.43 559.894 5629.31 748.371 5506.15 933.74H5506.16ZM6028.7 1068.39C5900.62 1250.3 5745.73 1417.89 5527.1 1381.66C5449.92 1368.87 5508.6 1360.4 5550.86 1341.77C5696.15 1277.68 5772.37 1137.4 5852.75 995.795C5909.47 1026.15 5966.09 1050.63 6028.7 1068.41V1068.39ZM5506.16 181.348C5629.31 366.717 5782.44 555.207 6003.01 518.648C6074.52 506.803 6020.17 498.955 5981 481.691C5835.19 417.378 5765 270.719 5682.76 128.761C5624.65 148.627 5565.94 166.687 5506.18 181.348H5506.16ZM6028.7 46.6932C5966.09 64.4745 5909.47 88.9487 5852.75 119.306C5772.37 -22.294 5696.15 -162.579 5550.86 -226.666C5508.58 -245.311 5449.91 -253.77 5527.1 -266.558C5745.73 -302.785 5900.62 -135.21 6028.7 46.7065V46.6932Z" fill="#EBB633"/>
</g>
<g clip-path="url(#clip2_4_5)">
<path fill-rule="evenodd" clip-rule="evenodd" d="M1125.75 3079.35C1278.09 3045.47 1304.2 3214.22 1216.37 3234.75C1205.84 3237.2 1195.81 3236.96 1194.83 3234.87C1193.22 3231.43 1217.44 3223.38 1213.56 3191.8C1204.93 3121.59 1072.68 3154.18 1114.61 3256.27C1121.84 3273.87 1133.59 3292.56 1147.36 3307.37C1202.44 3366.58 1350.31 3367.86 1413.67 3352.22C1497.83 3331.43 1575.07 3283.71 1667.71 3222.44C1700.77 3263.08 1736.46 3301.83 1774.29 3334.7C1702.58 3381.17 1639.77 3419.56 1583.63 3442.52C1639.77 3465.48 1702.58 3503.87 1774.29 3550.33C1736.46 3583.2 1700.77 3621.96 1667.71 3662.6C1575.05 3601.33 1497.83 3553.6 1413.67 3532.82C1350.31 3517.17 1202.44 3518.45 1147.36 3577.66C1133.59 3592.47 1121.84 3611.17 1114.61 3628.76C1072.68 3730.84 1204.91 3763.44 1213.56 3693.24C1217.44 3661.66 1193.22 3653.62 1194.83 3650.17C1195.81 3648.08 1205.85 3647.83 1216.37 3650.29C1304.2 3670.81 1278.09 3839.55 1125.75 3805.69C1097.58 3799.42 1072.08 3786.54 1051 3766.51C1029.92 3786.54 1004.42 3799.42 976.251 3805.69C823.91 3839.56 797.804 3670.82 885.626 3650.29C896.161 3647.83 906.194 3648.07 907.172 3650.17C908.785 3653.61 884.556 3661.66 888.442 3693.24C897.073 3763.44 1029.32 3730.86 987.394 3628.76C980.164 3611.17 968.413 3592.47 954.639 3577.66C899.559 3518.45 751.686 3517.17 688.331 3532.82C604.17 3553.6 526.935 3601.33 434.289 3662.6C401.23 3621.95 365.54 3583.2 327.71 3550.33C399.419 3503.87 462.232 3465.48 518.37 3442.52C462.232 3419.56 399.419 3381.17 327.71 3334.7C365.54 3301.83 401.23 3263.07 434.289 3222.44C526.935 3283.71 604.17 3331.43 688.331 3352.22C751.686 3367.86 899.559 3366.58 954.639 3307.37C968.413 3292.56 980.164 3273.87 987.394 3256.27C1029.32 3154.19 897.087 3121.59 888.442 3191.8C884.556 3223.38 908.785 3231.41 907.172 3234.87C906.194 3236.95 896.148 3237.2 885.626 3234.75C797.804 3214.23 823.91 3045.49 976.251 3079.35C1004.42 3085.62 1029.92 3098.5 1051 3118.52C1072.08 3098.5 1097.58 3085.62 1125.75 3079.35V3079.35ZM1051 3372.02C1012.24 3372.02 980.824 3403.58 980.824 3442.52C980.824 3481.45 1012.24 3513.02 1051 3513.02C1089.76 3513.02 1121.18 3481.45 1121.18 3442.52C1121.18 3403.58 1089.76 3372.02 1051 3372.02ZM-737.062 3442.53C-737.062 3534.78 -811.454 3609.51 -903.229 3609.51V4271.15C-900.122 4276.14 -891.557 4259.05 -878.114 4245.09C-852.034 4218.03 -793.398 4180.02 -816.53 4123.64C-744.292 4188.71 -646.08 4242.7 -565.264 4255.3C-539.634 4261.96 -511.016 4266.54 -479.689 4269.22C-313.654 4283.4 -133.463 4230.17 40.0537 4167.35C58.2024 4160.78 76.1924 4154.08 94.0768 4147.3C58.7972 4111.37 25.7648 4071.73 -4.70334 4031.73C-143.046 4082.14 -264.998 4118.22 -359.931 4133.74C-432.182 4145.55 -475.657 4143.04 -510.619 4135.42C-566.017 4123.33 -613.021 4093.11 -611.039 4038.69C-609.479 3995.52 -567.59 3982.24 -540.969 3989.71C-508.914 3998.72 -518.193 4037.55 -512.364 4043.81C-507.632 4048.91 -485.293 4031.73 -492.894 3989.77C-511.809 3885.36 -634.461 3889.59 -690.124 3939.56C-718.08 3964.64 -733.704 4004.02 -735.119 4044.21C-774.787 4009.35 -812.987 3959.37 -831.44 3911.83C-863.098 3830.24 -846.601 3704.88 -756.017 3683.53C-680.025 3665.61 -646.649 3743.38 -675.57 3786.46C-689.476 3807.17 -722.442 3824.52 -744.464 3801.01C-758.502 3786.03 -751.721 3775.16 -758.29 3776.64C-782.955 3782.25 -785.031 3849.73 -730.241 3875.19C-682.854 3897.22 -625.024 3872.46 -598.732 3824.73C-505.663 3925.75 -395.7 3957.8 -250.709 3953.35C-178.458 3951.14 -93.7019 3939.33 -14.8417 3915.46C69.3851 3889.96 145.932 3850.88 241.13 3790.51C214.799 3745.03 187.689 3701.27 153.797 3660.71C53.2852 3720.44 -49.6719 3767.39 -146.615 3793.16C-254.423 3821.83 -355.847 3823.56 -445.929 3781.61C-408.72 3773.02 -381.821 3751.9 -373.744 3715.65C-368.417 3691.73 -372.581 3664.79 -379.005 3648.42C-389.685 3621.14 -419.955 3611.84 -422.758 3618.51C-425.533 3625.14 -408.548 3671.8 -448.732 3692.08C-485.663 3710.71 -547.181 3694.72 -555.059 3637.39C-558.615 3611.5 -550.169 3579.64 -532.588 3559.58C-515.008 3539.51 -488.294 3531.25 -456.332 3529.58C-320.713 3522.49 -224.589 3640.61 -147.619 3756.74C-86.9871 3739.91 -25.575 3715.05 31.8055 3686.91C-2.98498 3643.18 -37.4979 3606.68 -68.4683 3575.88C-134.612 3510.12 -184.855 3471.16 -267.654 3442.52C-184.855 3413.87 -134.612 3374.91 -68.4683 3309.15C-37.4979 3278.36 -2.98498 3241.85 31.8055 3198.12C-25.5618 3169.98 -86.9871 3145.12 -147.619 3128.3C-224.589 3244.43 -320.713 3362.55 -456.332 3355.46C-488.307 3353.78 -515.008 3345.52 -532.588 3325.46C-550.169 3305.39 -558.615 3273.52 -555.059 3247.64C-547.181 3190.31 -485.663 3174.31 -448.732 3192.95C-408.548 3213.23 -425.533 3259.9 -422.758 3266.52C-419.955 3273.19 -389.699 3263.89 -379.005 3236.62C-372.594 3220.24 -368.43 3193.31 -373.744 3169.38C-381.807 3133.12 -408.72 3112.02 -445.929 3103.42C-355.86 3061.47 -254.423 3063.2 -146.615 3091.87C-49.6719 3117.65 53.2852 3164.59 153.797 3224.32C187.689 3183.75 214.812 3140.01 241.13 3094.53C145.919 3034.16 69.3851 2995.08 -14.8417 2969.58C-93.7019 2945.72 -178.458 2933.9 -250.709 2931.69C-395.7 2927.24 -505.663 2959.3 -598.732 3060.32C-625.024 3012.61 -682.854 2987.84 -730.241 3009.86C-785.018 3035.33 -782.955 3102.81 -758.29 3108.4C-751.721 3109.89 -758.502 3099.03 -744.464 3084.04C-722.442 3060.53 -689.476 3077.87 -675.57 3098.59C-646.649 3141.68 -680.012 3219.43 -756.017 3201.52C-846.601 3180.17 -863.098 3054.81 -831.44 2973.22C-812.987 2925.66 -774.787 2875.69 -735.119 2840.83C-733.691 2881.03 -718.067 2920.41 -690.124 2945.49C-634.448 2995.46 -511.809 2999.68 -492.894 2895.27C-485.293 2853.3 -507.619 2836.12 -512.364 2841.22C-518.193 2847.49 -508.914 2886.32 -540.969 2895.32C-567.603 2902.8 -609.479 2889.52 -611.039 2846.35C-613.008 2791.93 -566.017 2761.7 -510.619 2749.62C-475.657 2741.98 -432.182 2739.49 -359.931 2751.29C-264.998 2766.81 -143.046 2802.89 -4.70334 2853.3C25.7648 2813.32 58.7972 2773.67 94.0768 2737.73C76.2057 2730.95 58.2156 2724.24 40.0537 2717.68C-133.463 2654.88 -313.641 2601.64 -479.689 2615.83C-511.016 2618.51 -539.634 2623.09 -565.264 2629.74C-646.08 2642.35 -744.305 2696.34 -816.53 2761.41C-793.398 2705.02 -852.034 2667.03 -878.114 2639.97C-891.557 2626.01 -900.122 2608.92 -903.229 2613.91V3275.54C-811.454 3275.54 -737.062 3350.26 -737.062 3442.52V3442.53ZM-903.229 3541.58V3343.45C-848.796 3343.45 -804.686 3387.74 -804.66 3442.52C-804.686 3497.3 -848.796 3541.58 -903.229 3541.58ZM992.417 3908.16C820.156 3734.49 456.667 3860.13 233.463 3942.61C257.864 3984.54 282.887 4024.51 313.236 4062.7C420.053 4023.13 537.801 3986.62 623.006 3967.82C707.894 3949.09 781.956 3945.56 844.478 3955.21C804.043 3992.06 802.457 4051.82 833.652 4076.2C841.464 4082.31 850.466 4085.01 853.255 4081.05C858.146 4074.12 841.332 4035.01 873.4 4015.93C889.169 4006.55 916.478 4003.1 936.16 4012.28C975.498 4030.6 985.094 4100.27 953.476 4134.55C937.297 4152.11 910.067 4161.22 879.202 4163.5C779.166 4170.9 695.138 4098.89 626.099 4003.41C568.547 4016.31 510.28 4033.13 453.217 4051.58C507.756 4114.63 577.561 4184.84 644.578 4219.81C733.22 4266.06 887.504 4297.57 979.278 4242.61C1009.63 4224.43 1034.52 4196.45 1050.99 4165.14C1067.47 4196.45 1092.35 4224.43 1122.7 4242.61C1214.47 4297.59 1368.77 4266.06 1457.4 4219.81C1524.4 4184.84 1594.21 4114.62 1648.76 4051.58C1591.69 4033.13 1533.43 4016.31 1475.88 4003.41C1406.84 4098.89 1322.81 4170.89 1222.77 4163.5C1191.91 4161.22 1164.68 4152.11 1148.5 4134.55C1116.88 4100.27 1126.48 4030.6 1165.81 4012.28C1185.5 4003.1 1212.81 4006.55 1228.57 4015.93C1260.64 4035.01 1243.82 4074.12 1248.72 4081.05C1251.51 4084.99 1260.51 4082.3 1268.32 4076.2C1299.52 4051.82 1297.93 3992.05 1257.5 3955.21C1320.02 3945.55 1394.08 3949.09 1478.97 3967.82C1564.19 3986.62 1681.92 4023.11 1788.74 4062.7C1819.09 4024.51 1844.11 3984.54 1868.51 3942.61C1645.31 3860.13 1281.83 3734.51 1109.56 3908.16C1085.3 3932.61 1065.16 3957.63 1050.97 3984.46C1036.8 3957.63 1016.65 3932.61 992.39 3908.16H992.417ZM504.24 3818.71C381.098 3633.34 227.965 3444.85 7.39132 3481.41C-64.1063 3493.26 -9.76596 3501.11 29.3998 3518.37C175.211 3582.68 245.4 3729.34 327.644 3871.3C385.751 3851.43 444.467 3833.37 504.227 3818.71H504.24ZM-18.2918 3953.37C44.31 3935.59 100.937 3911.11 157.657 3880.76C238.037 4022.36 314.253 4162.64 459.549 4226.73C501.821 4245.37 560.497 4253.83 483.302 4266.62C264.672 4302.85 109.78 4135.27 -18.2918 3953.35V3953.37ZM992.417 2976.88C1016.67 2952.44 1036.82 2927.42 1051 2900.59C1065.17 2927.42 1085.33 2952.44 1109.58 2976.88C1281.84 3150.55 1645.33 3024.92 1868.54 2942.44C1844.14 2900.51 1819.11 2860.54 1788.76 2822.35C1681.95 2861.92 1564.2 2898.43 1478.99 2917.23C1394.11 2935.96 1320.04 2939.49 1257.52 2929.83C1297.96 2892.98 1299.54 2833.23 1268.35 2808.84C1260.54 2802.74 1251.53 2800.04 1248.75 2804C1243.85 2810.93 1260.67 2850.04 1228.6 2869.12C1212.83 2878.5 1185.52 2881.95 1165.84 2872.77C1126.5 2854.45 1116.91 2784.78 1148.52 2750.49C1164.7 2732.94 1191.93 2723.83 1222.8 2721.54C1322.83 2714.15 1406.86 2786.16 1475.9 2881.64C1533.45 2868.73 1591.72 2851.92 1648.78 2833.46C1594.24 2770.41 1524.44 2700.2 1457.42 2665.24C1368.79 2618.99 1214.5 2587.47 1122.72 2642.44C1092.37 2660.62 1067.48 2688.6 1051.01 2719.91C1034.53 2688.6 1009.65 2660.62 979.304 2642.44C887.53 2587.46 733.233 2618.99 644.605 2665.24C577.601 2700.2 507.795 2770.43 453.244 2833.46C510.307 2851.92 568.573 2868.73 626.125 2881.64C695.164 2786.16 779.193 2714.16 879.229 2721.54C910.093 2723.83 937.323 2732.94 953.502 2750.49C985.12 2784.78 975.524 2854.45 936.186 2872.77C916.504 2881.95 889.195 2878.5 873.426 2869.12C841.358 2850.04 858.185 2810.93 853.281 2804C850.492 2800.05 841.491 2802.75 833.679 2808.84C802.484 2833.23 804.07 2893 844.504 2929.83C781.982 2939.5 707.92 2935.96 623.032 2917.23C537.827 2898.43 420.079 2861.94 313.262 2822.35C282.913 2860.54 257.891 2900.51 233.49 2942.44C456.694 3024.92 820.17 3150.54 992.443 2976.88H992.417ZM504.24 3066.33C444.467 3051.67 385.764 3033.63 327.657 3013.75C245.413 3155.71 175.224 3302.37 29.413 3366.68C-9.75273 3383.95 -64.0931 3391.79 7.40456 3403.63C227.978 3440.18 381.098 3251.7 504.253 3066.33H504.24ZM-18.2918 2931.68C109.793 2749.76 264.685 2582.19 483.315 2618.42C560.497 2631.2 501.821 2639.68 459.562 2658.31C314.267 2722.39 238.05 2862.68 157.67 3004.28C100.95 2973.92 44.3232 2949.45 -18.2785 2931.67L-18.2918 2931.68ZM2839.04 3442.53C2839.04 3534.78 2913.43 3609.51 3005.2 3609.51V4271.15C3002.1 4276.14 2993.53 4259.05 2980.09 4245.09C2954.01 4218.03 2895.37 4180.02 2918.5 4123.64C2846.28 4188.71 2748.05 4242.7 2667.24 4255.3C2641.61 4261.96 2612.99 4266.54 2581.66 4269.22C2415.63 4283.4 2235.44 4230.17 2061.92 4167.35C2043.77 4160.78 2025.78 4154.08 2007.9 4147.3C2043.18 4111.37 2076.21 4071.73 2106.68 4031.73C2245.02 4082.14 2366.97 4118.22 2461.91 4133.74C2534.16 4145.55 2577.63 4143.04 2612.59 4135.42C2667.99 4123.33 2715 4093.11 2713.01 4038.69C2711.45 3995.52 2669.56 3982.24 2642.94 3989.71C2610.89 3998.72 2620.17 4037.55 2614.34 4043.81C2609.61 4048.91 2587.27 4031.73 2594.87 3989.77C2613.78 3885.36 2736.44 3889.59 2792.1 3939.56C2820.05 3964.64 2835.68 4004.02 2837.09 4044.21C2876.76 4009.35 2914.96 3959.37 2933.41 3911.83C2965.07 3830.24 2948.58 3704.88 2857.99 3683.53C2782 3665.61 2748.62 3743.38 2777.54 3786.46C2791.45 3807.17 2824.42 3824.52 2846.44 3801.01C2860.48 3786.03 2853.69 3775.16 2860.26 3776.64C2884.93 3782.25 2887 3849.73 2832.22 3875.19C2784.83 3897.22 2727 3872.46 2700.71 3824.73C2607.65 3925.75 2497.67 3957.8 2352.68 3953.35C2280.43 3951.14 2195.68 3939.33 2116.82 3915.46C2032.59 3889.96 1956.04 3850.88 1860.84 3790.51C1887.17 3745.03 1914.29 3701.27 1948.18 3660.71C2048.69 3720.44 2151.65 3767.39 2248.59 3793.16C2356.4 3821.83 2457.82 3823.56 2547.9 3781.61C2510.69 3773.02 2483.79 3751.9 2475.72 3715.65C2470.39 3691.73 2474.56 3664.79 2480.98 3648.42C2491.66 3621.14 2521.93 3611.84 2524.73 3618.51C2527.51 3625.14 2510.52 3671.8 2550.71 3692.08C2587.64 3710.71 2649.16 3694.72 2657.03 3637.39C2660.59 3611.5 2652.14 3579.64 2634.56 3559.58C2616.98 3539.51 2590.27 3531.25 2558.31 3529.58C2422.69 3522.49 2326.56 3640.61 2249.59 3756.74C2188.96 3739.91 2127.55 3715.05 2070.17 3686.91C2104.96 3643.18 2139.47 3606.68 2170.44 3575.88C2236.59 3510.12 2286.83 3471.16 2369.63 3442.52C2286.83 3413.87 2236.59 3374.91 2170.44 3309.15C2139.47 3278.36 2104.95 3241.85 2070.17 3198.12C2127.54 3169.98 2188.96 3145.12 2249.59 3128.3C2326.56 3244.43 2422.69 3362.55 2558.31 3355.46C2590.28 3353.78 2616.98 3345.52 2634.56 3325.46C2652.14 3305.39 2660.59 3273.52 2657.03 3247.64C2649.16 3190.31 2587.64 3174.31 2550.71 3192.95C2510.52 3213.23 2527.51 3259.9 2524.73 3266.52C2521.93 3273.19 2491.67 3263.89 2480.98 3236.62C2474.57 3220.24 2470.4 3193.31 2475.72 3169.38C2483.78 3133.12 2510.69 3112.02 2547.9 3103.42C2457.83 3061.47 2356.4 3063.2 2248.59 3091.87C2151.65 3117.65 2048.69 3164.59 1948.18 3224.32C1914.29 3183.75 1887.16 3140.01 1860.84 3094.53C1956.06 3034.16 2032.59 2995.08 2116.82 2969.58C2195.69 2945.72 2280.43 2933.9 2352.68 2931.69C2497.67 2927.24 2607.64 2959.3 2700.71 3060.32C2727 3012.61 2784.83 2987.84 2832.22 3009.86C2887 3035.33 2884.93 3102.81 2860.26 3108.4C2853.69 3109.89 2860.48 3099.03 2846.44 3084.04C2824.42 3060.53 2791.45 3077.87 2777.54 3098.59C2748.62 3141.68 2781.99 3219.43 2857.99 3201.52C2948.58 3180.17 2965.07 3054.81 2933.41 2973.22C2914.96 2925.66 2876.76 2875.69 2837.09 2840.83C2835.66 2881.03 2820.04 2920.41 2792.1 2945.49C2736.42 2995.46 2613.78 2999.68 2594.87 2895.27C2587.27 2853.3 2609.59 2836.12 2614.34 2841.22C2620.17 2847.49 2610.89 2886.32 2642.94 2895.32C2669.58 2902.8 2711.45 2889.52 2713.01 2846.35C2714.98 2791.93 2667.99 2761.7 2612.59 2749.62C2577.63 2741.98 2534.16 2739.49 2461.91 2751.29C2366.97 2766.81 2245.02 2802.89 2106.68 2853.3C2076.21 2813.32 2043.18 2773.67 2007.9 2737.73C2025.78 2730.95 2043.76 2724.24 2061.92 2717.68C2235.44 2654.85 2415.63 2601.63 2581.66 2615.81C2612.99 2618.5 2641.61 2623.08 2667.24 2629.73C2748.05 2642.33 2846.28 2696.33 2918.5 2761.4C2895.37 2705.01 2954.01 2667.01 2980.09 2639.94C2993.53 2625.98 3002.1 2608.89 3005.2 2613.89V3275.54C2913.43 3275.54 2839.04 3350.26 2839.04 3442.52V3442.53ZM3005.2 3541.6V3343.47C2950.77 3343.47 2906.65 3387.75 2906.63 3442.53C2906.66 3497.31 2950.77 3541.6 3005.2 3541.6ZM1597.72 3818.73C1657.49 3833.39 1716.2 3851.45 1774.3 3871.31C1856.55 3729.36 1926.74 3582.7 2072.55 3518.38C2111.71 3501.11 2166.07 3493.27 2094.56 3481.43C1873.98 3444.88 1720.86 3633.36 1597.71 3818.73H1597.72ZM2120.25 3953.38C1992.18 4135.28 1837.29 4302.87 1618.66 4266.65C1541.48 4253.86 1600.15 4245.39 1642.41 4226.75C1787.71 4162.67 1863.92 4022.38 1944.3 3880.78C2001.02 3911.14 2057.65 3935.61 2120.25 3953.39V3953.38ZM1597.72 3066.33C1720.86 3251.7 1874 3440.19 2094.57 3403.63C2166.07 3391.79 2111.73 3383.94 2072.56 3366.68C1926.75 3302.37 1856.56 3155.71 1774.32 3013.75C1716.21 3033.61 1657.49 3051.67 1597.73 3066.33H1597.72ZM2120.25 2931.68C2057.65 2949.46 2001.02 2973.94 1944.3 3004.29C1863.92 2862.69 1787.71 2722.41 1642.41 2658.32C1600.14 2639.68 1541.46 2631.22 1618.66 2618.43C1837.29 2582.2 1992.18 2749.78 2120.25 2931.69V2931.68Z" fill="#EBB633"/>
<path fill-rule="evenodd" clip-rule="evenodd" d="M5034.21 3079.36C5186.55 3045.49 5212.65 3214.23 5124.83 3234.76C5114.3 3237.22 5104.26 3236.98 5103.28 3234.88C5101.67 3231.44 5125.9 3223.39 5122.02 3191.81C5113.38 3121.6 4981.13 3154.19 5023.06 3256.29C5030.29 3273.88 5042.04 3292.58 5055.82 3307.38C5110.9 3366.6 5258.77 3367.87 5322.13 3352.23C5406.29 3331.45 5483.52 3283.72 5576.17 3222.45C5609.23 3263.1 5644.92 3301.85 5682.75 3334.71C5611.04 3381.18 5548.23 3419.57 5492.09 3442.53C5548.23 3465.49 5611.04 3503.88 5682.75 3550.35C5644.92 3583.21 5609.23 3621.98 5576.17 3662.61C5483.51 3601.34 5406.29 3553.61 5322.13 3532.83C5258.77 3517.19 5110.9 3518.46 5055.82 3577.68C5042.04 3592.48 5030.29 3611.18 5023.06 3628.78C4981.13 3730.86 5113.37 3763.46 5122.02 3693.25C5125.9 3661.67 5101.67 3653.64 5103.28 3650.18C5104.26 3648.1 5114.31 3647.85 5124.83 3650.3C5212.65 3670.82 5186.55 3839.56 5034.21 3805.7C5006.04 3799.43 4980.54 3786.55 4959.46 3766.52C4938.37 3786.55 4912.88 3799.43 4884.71 3805.7C4732.37 3839.58 4706.26 3670.83 4794.08 3650.3C4804.62 3647.85 4814.65 3648.08 4815.63 3650.18C4817.24 3653.62 4793.01 3661.67 4796.9 3693.25C4805.53 3763.46 4937.78 3730.87 4895.85 3628.78C4888.62 3611.18 4876.87 3592.48 4863.1 3577.68C4808.02 3518.46 4660.14 3517.19 4596.79 3532.83C4512.63 3553.61 4435.39 3601.34 4342.75 3662.61C4309.69 3621.96 4274 3583.21 4236.17 3550.35C4307.88 3503.88 4370.69 3465.49 4426.83 3442.53C4370.68 3419.57 4307.88 3381.18 4236.17 3334.71C4274 3301.85 4309.69 3263.08 4342.75 3222.45C4435.39 3283.72 4512.63 3331.45 4596.79 3352.23C4660.14 3367.87 4808.02 3366.6 4863.1 3307.38C4876.87 3292.58 4888.62 3273.88 4895.85 3256.29C4937.78 3154.21 4805.54 3121.6 4796.9 3191.81C4793.01 3223.39 4817.24 3231.43 4815.63 3234.88C4814.65 3236.96 4804.6 3237.22 4794.08 3234.76C4706.26 3214.24 4732.37 3045.5 4884.71 3079.36C4912.88 3085.63 4938.37 3098.51 4959.46 3118.54C4980.54 3098.51 5006.04 3085.63 5034.21 3079.36V3079.36ZM4959.46 3372.03C4920.7 3372.03 4889.28 3403.59 4889.28 3442.53C4889.28 3481.47 4920.7 3513.03 4959.46 3513.03C4998.21 3513.03 5029.63 3481.47 5029.63 3442.53C5029.63 3403.59 4998.21 3372.03 4959.46 3372.03ZM3171.4 3442.53C3171.4 3534.78 3097 3609.51 3005.23 3609.51V4271.15C3008.33 4276.14 3016.9 4259.05 3030.34 4245.09C3056.42 4218.03 3115.06 4180.02 3091.93 4123.64C3164.16 4188.71 3262.38 4242.7 3343.19 4255.3C3368.82 4261.96 3397.44 4266.54 3428.77 4269.22C3594.8 4283.4 3774.99 4230.17 3948.51 4167.35C3966.66 4160.78 3984.65 4154.07 4002.53 4147.3C3967.25 4111.37 3934.22 4071.73 3903.75 4031.73C3765.41 4082.14 3643.46 4118.22 3548.53 4133.74C3476.27 4145.55 3432.8 4143.04 3397.84 4135.42C3342.44 4123.33 3295.44 4093.11 3297.42 4038.69C3298.98 3995.52 3340.87 3982.24 3367.49 3989.71C3399.54 3998.72 3390.26 4037.55 3396.09 4043.82C3400.82 4048.91 3423.16 4031.73 3415.56 3989.77C3396.65 3885.36 3274 3889.59 3218.33 3939.56C3190.38 3964.64 3174.75 4004.02 3173.34 4044.21C3133.67 4009.35 3095.47 3959.37 3077.02 3911.83C3045.36 3830.24 3061.86 3704.88 3152.44 3683.53C3228.43 3665.61 3261.81 3743.38 3232.89 3786.46C3218.98 3807.17 3186.01 3824.52 3163.99 3801.01C3149.95 3786.03 3156.74 3775.16 3150.17 3776.64C3125.5 3782.25 3123.43 3849.73 3178.22 3875.19C3225.6 3897.22 3283.43 3872.46 3309.72 3824.73C3402.79 3925.75 3512.76 3957.8 3657.75 3953.35C3730 3951.14 3814.75 3939.33 3893.61 3915.45C3977.84 3889.96 4054.39 3850.88 4149.59 3790.51C4123.26 3745.03 4096.15 3701.27 4062.25 3660.71C3961.74 3720.44 3858.78 3767.39 3761.84 3793.16C3654.03 3821.83 3552.61 3823.56 3462.53 3781.61C3499.74 3773.02 3526.64 3751.9 3534.71 3715.65C3540.04 3691.73 3535.88 3664.79 3529.45 3648.42C3518.77 3621.14 3488.5 3611.84 3485.7 3618.51C3482.92 3625.14 3499.91 3671.8 3459.73 3692.08C3422.79 3710.71 3361.28 3694.72 3353.4 3637.39C3349.84 3611.5 3358.29 3579.64 3375.87 3559.58C3393.45 3539.51 3420.16 3531.25 3452.12 3529.58C3587.74 3522.49 3683.87 3640.61 3760.84 3756.74C3821.47 3739.91 3882.88 3715.05 3940.26 3686.91C3905.47 3643.18 3870.96 3606.68 3839.99 3575.88C3773.84 3510.12 3723.6 3471.16 3640.8 3442.52C3723.6 3413.87 3773.84 3374.91 3839.99 3309.15C3870.96 3278.36 3905.47 3241.85 3940.26 3198.12C3882.89 3169.98 3821.47 3145.12 3760.84 3128.3C3683.87 3244.43 3587.74 3362.55 3452.12 3355.46C3420.15 3353.78 3393.45 3345.52 3375.87 3325.46C3358.29 3305.39 3349.84 3273.52 3353.4 3247.64C3361.28 3190.31 3422.79 3174.31 3459.73 3192.95C3499.91 3213.23 3482.92 3259.9 3485.7 3266.52C3488.5 3273.19 3518.76 3263.89 3529.45 3236.62C3535.86 3220.24 3540.03 3193.31 3534.71 3169.38C3526.65 3133.12 3499.74 3112.02 3462.53 3103.42C3552.6 3061.47 3654.03 3063.2 3761.84 3091.87C3858.78 3117.65 3961.74 3164.59 4062.25 3224.32C4096.15 3183.75 4123.27 3140.01 4149.59 3094.53C4054.38 3034.16 3977.84 2995.08 3893.61 2969.58C3814.75 2945.72 3730 2933.9 3657.75 2931.69C3512.76 2927.24 3402.79 2959.3 3309.72 3060.32C3283.43 3012.61 3225.6 2987.84 3178.22 3009.86C3123.44 3035.33 3125.5 3102.81 3150.17 3108.4C3156.74 3109.89 3149.95 3099.03 3163.99 3084.04C3186.01 3060.53 3218.98 3077.87 3232.89 3098.59C3261.81 3141.68 3228.45 3219.43 3152.44 3201.52C3061.86 3180.17 3045.36 3054.81 3077.02 2973.22C3095.47 2925.66 3133.67 2875.69 3173.34 2840.83C3174.77 2881.03 3190.39 2920.41 3218.33 2945.49C3274.01 2995.46 3396.65 2999.68 3415.56 2895.27C3423.16 2853.3 3400.84 2836.12 3396.09 2841.22C3390.26 2847.49 3399.54 2886.32 3367.49 2895.32C3340.85 2902.8 3298.98 2889.52 3297.42 2846.35C3295.45 2791.93 3342.44 2761.7 3397.84 2749.62C3432.8 2741.98 3476.27 2739.49 3548.53 2751.29C3643.46 2766.81 3765.41 2802.89 3903.75 2853.3C3934.22 2813.32 3967.25 2773.67 4002.53 2737.73C3984.66 2730.95 3966.67 2724.24 3948.51 2717.68C3774.99 2654.85 3594.8 2601.63 3428.77 2615.81C3397.44 2618.5 3368.82 2623.08 3343.19 2629.73C3262.38 2642.33 3164.15 2696.33 3091.93 2761.4C3115.06 2705.01 3056.42 2667.01 3030.34 2639.94C3016.9 2625.98 3008.33 2608.89 3005.23 2613.89V3275.55C3097 3275.55 3171.4 3350.28 3171.4 3442.53V3442.53ZM3005.23 3541.6V3343.47C3059.66 3343.47 3103.77 3387.75 3103.8 3442.53C3103.77 3497.31 3059.66 3541.6 3005.23 3541.6ZM4900.87 3908.18C4728.61 3734.51 4365.12 3860.15 4141.92 3942.62C4166.32 3984.55 4191.34 4024.52 4221.69 4062.71C4328.51 4023.14 4446.26 3986.63 4531.46 3967.83C4616.35 3949.11 4690.41 3945.57 4752.93 3955.23C4712.5 3992.08 4710.91 4051.84 4742.11 4076.22C4749.92 4082.33 4758.92 4085.02 4761.71 4081.06C4766.6 4074.13 4749.79 4035.02 4781.86 4015.94C4797.63 4006.57 4824.93 4003.11 4844.62 4012.29C4883.95 4030.62 4893.55 4100.28 4861.93 4134.57C4845.75 4152.12 4818.52 4161.23 4787.66 4163.52C4687.62 4170.91 4603.59 4098.9 4534.56 4003.42C4477 4016.33 4418.74 4033.14 4361.67 4051.6C4416.21 4114.65 4486.02 4184.86 4553.03 4219.82C4641.68 4266.07 4795.96 4297.59 4887.73 4242.62C4918.08 4224.44 4942.97 4196.46 4959.44 4165.15C4975.93 4196.46 5000.8 4224.44 5031.15 4242.62C5122.93 4297.6 5277.22 4266.07 5365.85 4219.82C5432.86 4184.86 5502.66 4114.63 5557.21 4051.6C5500.15 4033.14 5441.88 4016.33 5384.33 4003.42C5315.29 4098.9 5231.26 4170.9 5131.23 4163.52C5100.36 4161.23 5073.13 4152.12 5056.95 4134.57C5025.34 4100.28 5034.93 4030.62 5074.27 4012.29C5093.95 4003.11 5121.26 4006.57 5137.03 4015.94C5169.1 4035.02 5152.27 4074.13 5157.18 4081.06C5159.96 4085.01 5168.97 4082.31 5176.78 4076.22C5207.97 4051.84 5206.39 3992.06 5165.95 3955.23C5228.47 3945.56 5302.54 3949.11 5387.42 3967.83C5472.64 3986.63 5590.38 4023.13 5697.19 4062.71C5727.54 4024.52 5752.57 3984.55 5776.97 3942.62C5553.76 3860.15 5190.29 3734.52 5018.01 3908.18C4993.76 3932.63 4973.61 3957.64 4959.43 3984.47C4945.26 3957.64 4925.1 3932.63 4900.85 3908.18H4900.87ZM4412.7 3818.73C4289.55 3633.36 4136.42 3444.87 3915.85 3481.43C3844.35 3493.27 3898.69 3501.12 3937.86 3518.38C4083.67 3582.7 4153.86 3729.36 4236.1 3871.31C4294.21 3851.45 4352.92 3833.39 4412.68 3818.73H4412.7ZM3890.16 3953.38C3952.77 3935.6 4009.39 3911.13 4066.11 3880.77C4146.49 4022.37 4222.71 4162.65 4368.01 4226.74C4410.28 4245.39 4468.95 4253.84 4391.76 4266.63C4173.13 4302.86 4018.24 4135.28 3890.16 3953.37V3953.38ZM4900.86 2976.9C4925.12 2952.45 4945.26 2927.43 4959.44 2900.61C4973.61 2927.43 4993.77 2952.45 5018.03 2976.9C5190.29 3150.57 5553.78 3024.93 5776.98 2942.45C5752.58 2900.53 5727.56 2860.55 5697.21 2822.36C5590.39 2861.94 5472.64 2898.44 5387.44 2917.25C5302.55 2935.97 5228.49 2939.5 5165.97 2929.85C5206.4 2893 5207.99 2833.24 5176.79 2808.86C5168.98 2802.75 5159.98 2800.05 5157.19 2804.01C5152.3 2810.94 5169.11 2850.05 5137.04 2869.13C5121.27 2878.51 5093.97 2881.96 5074.28 2872.79C5034.95 2854.46 5025.35 2784.79 5056.97 2750.51C5073.15 2732.95 5100.38 2723.84 5131.24 2721.56C5231.28 2714.16 5315.31 2786.18 5384.34 2881.66C5441.9 2868.75 5500.16 2851.94 5557.23 2833.48C5502.69 2770.43 5432.88 2700.22 5365.87 2665.25C5277.24 2619 5122.94 2587.49 5031.17 2642.45C5000.82 2660.63 4975.93 2688.61 4959.46 2719.92C4942.97 2688.61 4918.1 2660.63 4887.75 2642.45C4795.97 2587.47 4641.68 2619 4553.05 2665.25C4486.04 2700.22 4416.24 2770.44 4361.69 2833.48C4418.75 2851.94 4477.02 2868.75 4534.57 2881.66C4603.61 2786.18 4687.64 2714.17 4787.67 2721.56C4818.54 2723.84 4845.77 2732.95 4861.95 2750.51C4893.56 2784.79 4883.97 2854.46 4844.63 2872.79C4824.95 2881.96 4797.64 2878.51 4781.87 2869.13C4749.8 2850.05 4766.63 2810.94 4761.72 2804.01C4758.94 2800.07 4749.93 2802.76 4742.12 2808.86C4710.93 2833.24 4712.51 2893.01 4752.95 2929.85C4690.43 2939.51 4616.36 2935.97 4531.48 2917.25C4446.27 2898.44 4328.52 2861.95 4221.71 2822.36C4191.36 2860.55 4166.33 2900.53 4141.93 2942.45C4365.14 3024.93 4728.61 3150.55 4900.89 2976.9H4900.86ZM4412.68 3066.35C4352.91 3051.69 4294.21 3033.64 4236.1 3013.76C4153.86 3155.72 4083.67 3302.38 3937.86 3366.69C3898.69 3383.97 3844.35 3391.8 3915.85 3403.65C4136.42 3440.19 4289.54 3251.72 4412.7 3066.35H4412.68ZM3890.15 2931.69C4018.22 2749.79 4173.12 2582.2 4391.75 2618.43C4468.93 2631.22 4410.25 2639.69 4367.99 2658.32C4222.7 2722.41 4146.48 2862.69 4066.1 3004.29C4009.38 2973.94 3952.75 2949.46 3890.15 2931.68V2931.69ZM6747.48 3442.54C6747.48 3534.8 6821.87 3609.52 6913.65 3609.52V4271.16C6910.54 4276.15 6901.97 4259.06 6888.53 4245.11C6862.45 4218.04 6803.82 4180.04 6826.95 4123.65C6754.72 4188.72 6656.5 4242.72 6575.68 4255.32C6550.05 4261.97 6521.43 4266.55 6490.11 4269.24C6324.07 4283.42 6143.88 4230.18 5970.36 4167.37C5952.21 4160.79 5934.23 4154.09 5916.34 4147.32C5951.62 4111.38 5984.65 4071.74 6015.12 4031.74C6153.46 4082.15 6275.41 4118.23 6370.35 4133.76C6442.6 4145.56 6486.07 4143.05 6521.04 4135.43C6576.43 4123.35 6623.44 4093.12 6621.46 4038.7C6619.9 3995.53 6578.01 3982.25 6551.39 3989.73C6519.33 3998.73 6528.61 4037.56 6522.78 4043.83C6518.05 4048.93 6495.71 4031.74 6503.31 3989.78C6522.23 3885.38 6644.88 3889.6 6700.54 3939.57C6728.5 3964.66 6744.12 4004.03 6745.54 4044.23C6785.2 4009.37 6823.4 3959.38 6841.86 3911.84C6873.51 3830.25 6857.02 3704.89 6766.43 3683.54C6690.44 3665.63 6657.07 3743.39 6685.99 3786.47C6699.89 3807.19 6732.86 3824.53 6754.88 3801.03C6768.92 3786.05 6762.14 3775.17 6768.71 3776.66C6793.37 3782.26 6795.45 3849.75 6740.66 3875.2C6693.27 3897.24 6635.44 3872.47 6609.15 3824.74C6516.09 3925.76 6406.12 3957.82 6261.13 3953.37C6188.87 3951.15 6104.12 3939.34 6025.26 3915.47C5941.03 3889.97 5864.49 3850.89 5769.29 3790.52C5795.62 3745.04 5822.73 3701.28 5856.62 3660.73C5957.13 3720.46 6060.09 3767.4 6157.03 3793.18C6264.84 3821.85 6366.26 3823.57 6456.35 3781.62C6419.14 3773.03 6392.24 3751.92 6384.16 3715.66C6378.83 3691.75 6383 3664.8 6389.42 3648.43C6400.1 3621.15 6430.37 3611.86 6433.18 3618.52C6435.95 3625.15 6418.97 3671.82 6459.15 3692.09C6496.08 3710.72 6557.6 3694.74 6565.48 3637.41C6569.03 3611.51 6560.59 3579.66 6543.01 3559.59C6525.43 3539.52 6498.71 3531.26 6466.75 3529.59C6331.13 3522.5 6235.01 3640.62 6158.04 3756.75C6097.4 3739.93 6035.99 3715.07 5978.61 3686.93C6013.4 3643.2 6047.92 3606.69 6078.89 3575.9C6145.03 3510.14 6195.27 3471.17 6278.07 3442.53C6195.27 3413.89 6145.03 3374.92 6078.89 3309.16C6047.92 3278.37 6013.39 3241.86 5978.61 3198.13C6035.98 3169.99 6097.4 3145.14 6158.04 3128.31C6235.01 3244.44 6331.13 3362.56 6466.75 3355.47C6498.72 3353.8 6525.43 3345.54 6543.01 3325.47C6560.59 3305.41 6569.03 3273.54 6565.48 3247.65C6557.6 3190.33 6496.08 3174.32 6459.15 3192.97C6418.97 3213.25 6435.95 3259.91 6433.18 3266.54C6430.37 3273.2 6400.12 3263.91 6389.42 3236.63C6383.01 3220.26 6378.85 3193.33 6384.16 3169.4C6392.22 3133.13 6419.14 3112.03 6456.35 3103.44C6366.28 3061.49 6264.84 3063.21 6157.03 3091.88C6060.09 3117.66 5957.13 3164.6 5856.62 3224.33C5822.73 3183.77 5795.61 3140.02 5769.29 3094.54C5864.5 3034.17 5941.03 2995.09 6025.26 2969.59C6104.13 2945.73 6188.87 2933.91 6261.13 2931.71C6406.12 2927.26 6516.08 2959.31 6609.15 3060.33C6635.44 3012.62 6693.27 2987.85 6740.66 3009.87C6795.45 3035.34 6793.37 3102.83 6768.71 3108.42C6762.14 3109.9 6768.92 3099.04 6754.88 3084.05C6732.86 3060.54 6699.89 3077.89 6685.99 3098.6C6657.07 3141.7 6690.43 3219.45 6766.43 3201.53C6857.02 3180.18 6873.51 3054.82 6841.86 2973.23C6823.4 2925.68 6785.2 2875.71 6745.54 2840.85C6744.11 2881.05 6728.48 2920.42 6700.54 2945.5C6644.87 2995.47 6522.23 2999.7 6503.31 2895.28C6495.71 2853.32 6518.04 2836.13 6522.78 2841.23C6528.61 2847.5 6519.33 2886.33 6551.39 2895.33C6578.02 2902.81 6619.9 2889.53 6621.46 2846.36C6623.43 2791.94 6576.43 2761.72 6521.04 2749.63C6486.07 2741.99 6442.6 2739.5 6370.35 2751.3C6275.41 2766.83 6153.46 2802.91 6015.12 2853.32C5984.65 2813.33 5951.62 2773.68 5916.34 2737.75C5934.23 2730.96 5952.2 2724.25 5970.36 2717.69C6143.88 2654.87 6324.07 2601.64 6490.11 2615.83C6521.43 2618.51 6550.05 2623.09 6575.68 2629.74C6656.5 2642.35 6754.72 2696.34 6826.95 2761.41C6803.82 2705.02 6862.45 2667.02 6888.53 2639.95C6901.97 2626 6910.54 2608.91 6913.65 2613.9V3275.55C6821.87 3275.55 6747.48 3350.28 6747.48 3442.53V3442.54ZM6913.65 3541.61V3343.48C6859.21 3343.48 6815.09 3387.77 6815.08 3442.54C6815.1 3497.32 6859.21 3541.61 6913.65 3541.61V3541.61ZM5506.16 3818.74C5565.94 3833.4 5624.64 3851.46 5682.75 3871.33C5764.99 3729.37 5835.18 3582.71 5980.99 3518.4C6020.16 3501.12 6074.51 3493.28 6003 3481.44C5782.43 3444.89 5629.31 3633.37 5506.15 3818.74H5506.16ZM6028.7 3953.39C5900.62 4135.3 5745.73 4302.89 5527.1 4266.66C5449.92 4253.87 5508.6 4245.4 5550.86 4226.77C5696.15 4162.68 5772.37 4022.4 5852.75 3880.8C5909.47 3911.15 5966.09 3935.63 6028.7 3953.41V3953.39ZM5506.16 3066.35C5629.31 3251.72 5782.44 3440.21 6003.01 3403.65C6074.52 3391.8 6020.17 3383.95 5981 3366.69C5835.19 3302.38 5765 3155.72 5682.76 3013.76C5624.65 3033.63 5565.94 3051.69 5506.18 3066.35H5506.16ZM6028.7 2931.69C5966.09 2949.47 5909.47 2973.95 5852.75 3004.31C5772.37 2862.71 5696.15 2722.42 5550.86 2658.33C5508.58 2639.69 5449.91 2631.23 5527.1 2618.44C5745.73 2582.22 5900.62 2749.79 6028.7 2931.71V2931.69Z" fill="#EBB633"/>
</g>
</g>
<defs>
<clipPath id="clip0_4_5">
<rect width="6000" height="4000" fill="white"/>
</clipPath>
<clipPath id="clip1_4_5">
<rect width="7816.9" height="1659" fill="white" transform="translate(-903.229 -272)"/>
</clipPath>
<clipPath id="clip2_4_5">
<rect width="7816.9" height="1659" fill="white" transform="translate(-903.229 2613)"/>
</clipPath>
</defs>
</svg>
